<?xml version="1.0" encoding="UTF-8"?>
<svg version="1.1" xmlns="http://www.w3.org/2000/svg" width="681" height="688">
<path d="M0 0 C224.73 0 449.46 0 681 0 C681 227.04 681 454.08 681 688 C456.27 688 231.54 688 0 688 C0 460.96 0 233.92 0 0 Z " fill="#EDC654" transform="translate(0,0)"/>
<path d="M0 0 C224.73 0 449.46 0 681 0 C681 227.04 681 454.08 681 688 C456.27 688 231.54 688 0 688 C0 460.96 0 233.92 0 0 Z M289.6875 13.3125 C288.33253679 13.5370508 286.9775561 13.76149608 285.62255859 13.98583984 C278.09981658 15.24357469 270.59420026 16.57893315 263.125 18.125 C262.41432373 18.27106689 261.70364746 18.41713379 260.97143555 18.56762695 C256.7056986 19.49438002 252.61829873 20.73275737 248.49169922 22.15185547 C245.70452632 23.1005757 242.90135102 23.98860089 240.09375 24.875 C212.57253695 33.68437978 186.29944115 45.28059868 162 61 C161.03191406 61.62261719 160.06382812 62.24523438 159.06640625 62.88671875 C143.57886428 73.02663667 128.98119639 84.24425077 115.41015625 96.8359375 C113 99 113 99 110.68359375 100.6640625 C110.12800781 101.10492188 109.57242188 101.54578125 109 102 C109 102.66 109 103.32 109 104 C108.195625 104.309375 108.195625 104.309375 107.375 104.625 C104.08021991 106.53250426 101.40636372 109.04819384 99 112 C99 112.66 99 113.32 99 114 C98.40316406 114.26167969 97.80632812 114.52335937 97.19140625 114.79296875 C94.85716926 116.07867148 93.6400907 117.27897096 91.9375 119.3125 C91.0403125 120.37404297 91.0403125 120.37404297 90.125 121.45703125 C89.42375 122.29621094 88.7225 123.13539062 88 124 C87.10533998 125.04657706 86.20942931 126.09208585 85.3125 127.13671875 C84.35385865 128.25754913 83.39552554 129.37864322 82.4375 130.5 C81.99075928 131.02118408 81.54401855 131.54236816 81.08374023 132.0793457 C67.62191337 147.94901895 54.58558668 165.97077755 45.5859375 184.765625 C44.40785253 187.16822194 43.19544644 189.51304933 41.9140625 191.859375 C32.61166434 208.89366267 25.79804205 226.4997758 20 245 C19.70206543 245.9290918 19.40413086 246.85818359 19.09716797 247.81542969 C13.93961962 263.98548774 10.59903688 280.23756194 8 297 C7.73050537 298.69334473 7.73050537 298.69334473 7.45556641 300.42089844 C5.39082146 313.97399843 4.8305307 327.46699534 4.86962891 341.15136719 C4.87497973 343.36660655 4.86964686 345.58164177 4.86328125 347.796875 C4.84301942 384.92654378 11.07875055 420.8265271 23 456 C23.30099609 456.89170898 23.60199219 457.78341797 23.91210938 458.70214844 C38.5400279 501.21352754 62.92443253 540.35055165 93.43359375 573.21484375 C95.56366185 575.52647016 97.63951758 577.8661298 99.6875 580.25 C105.61324836 587.06461061 112.1326564 593.15175629 119 599 C119.98097656 599.84691406 120.96195312 600.69382812 121.97265625 601.56640625 C133.1500267 611.17457749 144.88867351 619.73138454 157.20556641 627.81103516 C158.88241446 628.92208958 160.54157293 630.05971375 162.19921875 631.19921875 C167.89837014 635.11040108 173.60336373 638.4617706 179.8359375 641.44921875 C182.64363347 642.8253364 185.37878802 644.29285936 188.11303711 645.80834961 C219.56144813 663.11696925 254.97763198 673.10606393 290.25 678.875 C291.48588867 679.07834961 292.72177734 679.28169922 293.99511719 679.49121094 C308.39735183 681.7173265 322.82256654 682.23783707 337.375 682.25 C338.1175705 682.25067474 338.86014099 682.25134949 339.62521362 682.25204468 C365.47636693 682.21541037 390.74079918 679.60211215 416 674 C417.5818864 673.66597993 419.16390687 673.33259387 420.74609375 673 C431.08916161 670.76262438 441.04841676 667.57736652 451 664 C451.81984375 663.70609375 452.6396875 663.4121875 453.484375 663.109375 C495.13729111 648.0325526 533.0832169 625.70379033 566 596 C567.09622041 595.027193 568.19257183 594.05453362 569.2890625 593.08203125 C581.56063234 582.08666009 592.87281003 569.9959844 603 557 C603.47083008 556.40703125 603.94166016 555.8140625 604.42675781 555.203125 C615.01865069 541.8548038 624.63945299 527.8574956 633 513 C633.71734513 511.78692856 634.43615981 510.57472522 635.15625 509.36328125 C655.75454776 474.0896879 667.32695772 435.03825368 674 395 C674.12890625 394.2265625 674.2578125 393.453125 674.390625 392.65625 C676.08681923 382.156 676.7164878 371.61761477 677 361 C677.03399902 359.77732422 677.06799805 358.55464844 677.10302734 357.29492188 C678.60893264 297.34402019 665.69354068 238.95666095 637.10888672 186.06201172 C636.18403443 184.34221813 635.27897071 182.61180143 634.37890625 180.87890625 C625.64293247 164.22363612 613.97737061 148.44395343 602 134 C601.19175781 133.01773438 600.38351562 132.03546875 599.55078125 131.0234375 C585.22865236 113.76077491 569.66145765 97.86622869 552 84 C551.48050781 83.59152832 550.96101562 83.18305664 550.42578125 82.76220703 C543.44049105 77.28472739 536.38858302 71.92572201 529 67 C528.1020874 66.39430176 528.1020874 66.39430176 527.18603516 65.77636719 C505.04293508 50.94258773 479.66235698 36.88808074 454.109375 28.98046875 C451.85129629 28.26843639 449.61342832 27.49129026 447.390625 26.67578125 C427.07124651 19.27815325 405.17388683 15.1611807 383.76171875 12.5078125 C380 12 380 12 377 11 C369.90175099 10.05240414 362.7960063 9.8506876 355.64453125 9.8671875 C354.69922043 9.86623077 353.75390961 9.86527405 352.779953 9.86428833 C350.79430067 9.86361312 348.80864604 9.865421 346.82299805 9.86962891 C343.83702441 9.87495625 340.85120325 9.86967677 337.86523438 9.86328125 C321.56282838 9.85506623 305.80303292 10.58941071 289.6875 13.3125 Z " fill="#FEFEFD" transform="translate(0,0)"/>
<path d="M0 0 C0.84458771 -0.00335861 1.68917542 -0.00671722 2.55935669 -0.01017761 C5.34590129 -0.01966028 8.13238559 -0.02162953 10.91894531 -0.02270508 C12.86322046 -0.02592005 14.80749537 -0.02928431 16.75177002 -0.03279114 C20.82703207 -0.03877607 24.90227293 -0.04063174 28.97753906 -0.04003906 C34.18362346 -0.0399376 39.389571 -0.05357635 44.59562302 -0.07081127 C48.61237199 -0.08196554 52.62908826 -0.0839572 56.64585114 -0.08342934 C58.56426718 -0.0846048 60.48268419 -0.08900211 62.4010849 -0.0967617 C65.09300633 -0.10662876 67.78463573 -0.10365699 70.4765625 -0.09765625 C71.65054092 -0.10608551 71.65054092 -0.10608551 72.84823608 -0.11468506 C82.33723189 -0.06130265 89.41539128 1.67518419 96.49707031 8.14526367 C102.14264203 14.09600143 103.93621793 20.23029147 104.00878906 28.26635742 C104.02674026 29.01111832 104.04469147 29.75587921 104.06318665 30.52320862 C104.11689342 32.8763379 104.15105574 35.22926911 104.18457031 37.58276367 C104.2177786 39.1889108 104.25227146 40.79503192 104.28808594 42.40112305 C104.37259606 46.31569266 104.43959403 50.23020761 104.49707031 54.14526367 C106.13820801 54.20568848 106.13820801 54.20568848 107.8125 54.26733398 C109.26467907 54.33536822 110.71682606 54.40408945 112.16894531 54.47338867 C112.88808105 54.49804199 113.6072168 54.52269531 114.34814453 54.5480957 C122.16690472 54.95020337 126.44973502 58.25029514 131.99707031 63.52026367 C134.02995956 67.07781985 134.06633672 70.07814459 134.49707031 74.14526367 C135.68465942 74.11384277 135.68465942 74.11384277 136.89624023 74.08178711 C140.49222049 73.998509 144.08799767 73.94656476 147.68457031 73.89526367 C148.93044922 73.86174805 150.17632813 73.82823242 151.45996094 73.79370117 C153.26303711 73.77436523 153.26303711 73.77436523 155.10253906 73.75463867 C156.75999146 73.72321777 156.75999146 73.72321777 158.45092773 73.69116211 C162.74571535 74.33140455 165.18851486 76.43346757 167.79003906 79.83666992 C168.92751057 83.55073436 168.82507659 87.2217001 168.80957031 91.08276367 C168.82568359 91.88133789 168.84179688 92.67991211 168.85839844 93.50268555 C168.86227531 98.1820696 168.63989847 101.42727742 165.49707031 105.14526367 C161.65829692 107.92898485 159.03035882 108.50782459 154.32128906 108.43823242 C153.16435547 108.42856445 152.00742187 108.41889648 150.81542969 108.40893555 C149.61724609 108.38379883 148.4190625 108.35866211 147.18457031 108.33276367 C145.35829102 108.31246094 145.35829102 108.31246094 143.49511719 108.29174805 C140.49531686 108.25645628 137.49642057 108.20714848 134.49707031 108.14526367 C134.51705582 109.1488517 134.51705582 109.1488517 134.53744507 110.17271423 C134.67065214 117.16475106 134.76087474 124.15642484 134.82666016 131.14941406 C134.85674929 133.75568291 134.89763116 136.36185119 134.94970703 138.96777344 C135.02286249 142.72380443 135.0566078 146.47849156 135.08300781 150.23510742 C135.11397552 151.39171371 135.14494324 152.54832001 135.17684937 153.73997498 C135.17955864 160.31883584 134.34466499 164.7054723 130.57022095 170.1421051 C122.56690539 177.87521907 114.86868744 177.8557559 104.17041016 177.76049805 C102.51395602 177.76400268 100.85750525 177.76966511 99.20106506 177.77731323 C94.71964868 177.79151958 90.23884894 177.77454201 85.75749159 177.75102806 C81.06111895 177.7308729 76.36477075 177.73680093 71.66836548 177.73913574 C63.78499215 177.73908223 55.901859 177.71935933 48.01855469 177.68725586 C38.90937905 177.65034016 29.80051759 177.64158448 20.69127691 177.64855337 C11.91866978 177.65486139 3.14617017 177.64410019 -5.62641525 177.62458801 C-9.35594593 177.61642171 -13.08542161 177.61370304 -16.81496048 177.61528015 C-21.20636141 177.61615998 -25.59746439 177.60191652 -29.9887867 177.57605362 C-31.59881585 177.56890073 -33.20887671 177.56680398 -34.81891823 177.57017136 C-37.01938115 177.57389534 -39.21897892 177.55910817 -41.41934204 177.53967285 C-42.64968485 177.53594414 -43.88002766 177.53221542 -45.14765358 177.52837372 C-51.88262369 176.75936556 -56.32460374 173.19869623 -60.50292969 168.14526367 C-63.36357286 163.66358937 -63.819916 160.42836885 -63.50292969 155.14526367 C-64.29957031 155.19166992 -65.09621094 155.23807617 -65.91699219 155.28588867 C-74.56552777 155.58048599 -74.56552777 155.58048599 -79.00292969 153.52026367 C-85.35539293 147.48542359 -85.35539293 147.48542359 -85.66162109 142.62817383 C-85.64276855 141.7392041 -85.62391602 140.85023438 -85.60449219 139.93432617 C-85.5898291 139.03665527 -85.57516602 138.13898438 -85.56005859 137.21411133 C-85.54120605 136.5313916 -85.52235352 135.84867188 -85.50292969 135.14526367 C-86.28553665 135.15414612 -87.06814362 135.16302856 -87.87446594 135.17218018 C-95.24628474 135.25229592 -102.61789277 135.31321221 -109.99003315 135.35251236 C-113.78024666 135.37339627 -117.57010078 135.40172748 -121.36010742 135.44702148 C-125.01705143 135.49045225 -128.67364955 135.51439473 -132.33083153 135.52477264 C-133.72674189 135.53216915 -135.1226331 135.54661295 -136.51839638 135.5681839 C-138.47179358 135.59717484 -140.42553813 135.5988972 -142.37915039 135.59936523 C-143.49167679 135.60824768 -144.60420319 135.61713013 -145.7504425 135.62628174 C-148.50292969 135.14526367 -148.50292969 135.14526367 -150.3604126 133.31341553 C-151.96960626 130.2596527 -151.90881592 127.77307601 -151.93652344 124.33276367 C-151.94176529 123.68202881 -151.94700714 123.03129395 -151.95240784 122.36083984 C-151.95881251 120.98919091 -151.9575111 119.61748693 -151.94897461 118.24584961 C-151.94045477 116.15142846 -151.96925443 114.05972871 -152.00097656 111.96557617 C-152.00258861 110.62963949 -152.00201097 109.29369799 -151.99902344 107.95776367 C-152.00087646 106.74733398 -152.00272949 105.5369043 -152.00463867 104.28979492 C-151.39194709 100.4496647 -150.53736622 99.50788471 -147.50292969 97.14526367 C-144.66815186 96.66424561 -144.66815186 96.66424561 -141.35742188 96.69116211 C-139.49594513 96.6916153 -139.49594513 96.6916153 -137.59686279 96.69207764 C-136.24783686 96.71250252 -134.89881752 96.73336648 -133.54980469 96.75463867 C-132.16547463 96.76210265 -130.78113397 96.76779485 -129.39678955 96.77178955 C-125.76003652 96.78703393 -122.12392643 96.82630415 -118.48742676 96.87060547 C-114.77393287 96.91158475 -111.0603347 96.92980616 -107.34667969 96.94995117 C-100.06513714 96.99280066 -92.78412364 97.06103613 -85.50292969 97.14526367 C-85.52323242 96.46326904 -85.54353516 95.78127441 -85.56445312 95.07861328 C-85.58813965 93.73295288 -85.58813965 93.73295288 -85.61230469 92.36010742 C-85.63260742 91.47186279 -85.65291016 90.58361816 -85.67382812 89.66845703 C-85.35812845 85.00737687 -82.81938559 82.30214916 -79.44042969 79.33276367 C-75.85398446 77.13461982 -72.92174602 77.03445407 -68.81542969 77.08276367 C-67.8215625 77.09178711 -66.82769531 77.10081055 -65.80371094 77.11010742 C-65.04445313 77.12170898 -64.28519531 77.13331055 -63.50292969 77.14526367 C-63.68855469 75.72213867 -63.68855469 75.72213867 -63.87792969 74.27026367 C-63.87792969 68.73063451 -60.76340839 64.41812846 -57.50292969 60.14526367 C-51.55600356 55.0655976 -45.70463419 55.01128533 -38.12792969 55.08276367 C-36.88269531 55.09178711 -35.63746094 55.10081055 -34.35449219 55.11010742 C-32.94296875 55.12750977 -32.94296875 55.12750977 -31.50292969 55.14526367 C-31.53435059 53.61772461 -31.53435059 53.61772461 -31.56640625 52.05932617 C-31.63927652 48.25006391 -31.68489848 44.44086217 -31.72265625 40.63110352 C-31.7426654 38.98809417 -31.76988182 37.34515508 -31.8046875 35.70239258 C-31.85368273 33.32900579 -31.87600473 30.95656718 -31.89355469 28.58276367 C-31.91419983 27.85847168 -31.93484497 27.13417969 -31.95611572 26.38793945 C-31.95900273 19.69777643 -29.33038151 15.09730123 -25.87792969 9.52026367 C-18.23608805 1.87842203 -10.48127151 -0.00600692 0 0 Z " fill="#FCFBF5" transform="translate(370.5029296875,267.854736328125)"/>
<path d="M0 0 C1.61852413 -0.0026569 3.23704572 -0.00879565 4.85554504 -0.0181427 C9.23819767 -0.03322082 13.61918265 0.00139211 18.00158358 0.04586434 C22.59162569 0.08480103 27.18164148 0.08061237 31.77182007 0.08183289 C39.47723631 0.09014626 47.18201845 0.12871354 54.88720703 0.1875 C63.79360899 0.2552868 72.69946929 0.28513578 81.60611403 0.29247504 C91.0940661 0.30035119 100.58182791 0.33115626 110.06969404 0.37126899 C112.80184962 0.3815903 115.5339946 0.38815567 118.26616287 0.39409828 C122.55910605 0.40490149 126.85168122 0.43143707 131.14446068 0.47014046 C132.71941677 0.48209135 134.2944203 0.48901208 135.86942101 0.49052811 C138.01998093 0.49353901 140.16959234 0.51499289 142.31997681 0.54121399 C143.52304285 0.54883916 144.72610889 0.55646433 145.96563148 0.56432056 C149.46403826 0.99602071 151.33186397 1.85891509 154.13818359 3.95581055 C157.13818359 8.19718986 157.13818359 8.19718986 157.13818359 10.95581055 C156.53541092 10.95723557 155.93263824 10.95866058 155.31159973 10.96012878 C149.03319903 10.97982767 142.75577031 11.03410533 136.4777832 11.10839844 C134.13540624 11.13158387 131.79292495 11.1459754 129.45043945 11.15136719 C126.08136943 11.16065231 122.71394168 11.20163624 119.34521484 11.2487793 C118.29920609 11.24484665 117.25319733 11.240914 116.17549133 11.23686218 C110.14922256 11.34759186 110.14922256 11.34759186 105.00024414 14.3125 C101.83576428 18.80467561 101.89335429 22.95841644 101.82568359 28.26831055 C101.79667969 29.01532227 101.76767578 29.76233398 101.73779297 30.53198242 C101.67755558 35.80970459 102.64118693 38.77109284 106.13818359 42.95581055 C108.5798453 44.1766414 110.22509165 44.11311798 112.95507812 44.16113281 C113.95596466 44.18107803 114.9568512 44.20102325 115.98806763 44.22157288 C117.61311722 44.24664162 117.61311722 44.24664162 119.27099609 44.2722168 C120.93145462 44.30338844 120.93145462 44.30338844 122.62545776 44.33518982 C126.17130158 44.40072046 129.71722114 44.45958669 133.26318359 44.51831055 C135.6629311 44.56149242 138.06267086 44.60510659 140.46240234 44.64916992 C146.35425126 44.75640547 152.24617656 44.85766303 158.13818359 44.95581055 C158.13818359 48.58581055 158.13818359 52.21581055 158.13818359 55.95581055 C111.11318359 56.45081055 111.11318359 56.45081055 63.13818359 56.95581055 C56.70555098 68.53454925 50.33006769 80.12017417 44.1484375 91.83081055 C43.18984347 93.64500526 42.22683899 95.45680057 41.26318359 97.26831055 C40.70888672 98.31631836 40.15458984 99.36432617 39.58349609 100.4440918 C38.13818359 102.95581055 38.13818359 102.95581055 36.13818359 104.95581055 C34.00862122 105.23669434 34.00862122 105.23669434 31.34057617 105.27807617 C30.34226273 105.29729126 29.34394928 105.31650635 28.31538391 105.33630371 C26.69046272 105.34905334 26.69046272 105.34905334 25.03271484 105.36206055 C23.92014816 105.37346069 22.80758148 105.38486084 21.66130066 105.39660645 C19.30166438 105.41552824 16.94197499 105.42858306 14.58227539 105.4362793 C10.9821239 105.45564146 7.38428046 105.5176378 3.78466797 105.58081055 C1.49236383 105.59387571 -0.79995667 105.60437465 -3.09228516 105.61206055 C-4.16544479 105.63675415 -5.23860443 105.66144775 -6.34428406 105.68688965 C-12.55772563 105.65011295 -16.12527319 104.92585311 -20.64668274 100.53820801 C-23.55611001 96.74943114 -23.04390763 92.29462912 -23.08642578 87.75585938 C-23.09781586 86.919711 -23.10920593 86.08356262 -23.12094116 85.22207642 C-23.23152299 76.48135879 -23.27900769 67.73980473 -23.32177734 58.99853516 C-23.3440498 54.85358262 -23.38581662 50.70953083 -23.44482422 46.56494141 C-23.51599621 41.55578751 -23.55262139 36.54748106 -23.56489563 31.53784752 C-23.57528131 29.63246026 -23.59767018 27.72709786 -23.63249207 25.8220005 C-23.67884071 23.14791437 -23.68068323 20.47713494 -23.67236328 17.80273438 C-23.69595917 17.02269547 -23.71955505 16.24265656 -23.74386597 15.4389801 C-23.66350692 10.07561721 -22.15106331 6.3441002 -18.36422348 2.48977757 C-12.88630619 -0.86816709 -6.21953275 -0.1020893 0 0 Z " fill="#EDC655" transform="translate(338.86181640625,331.044189453125)"/>
<path d="M0 0 C2.00921101 0.01866051 4.01846764 0.03289076 6.02774048 0.0428772 C11.30615755 0.08098812 16.5818052 0.17914944 21.85913086 0.28991699 C27.24815401 0.39237376 32.63762655 0.43791963 38.02734375 0.48828125 C48.59496423 0.59540206 59.16053274 0.76598109 69.7265625 0.9765625 C69.80109872 5.1391237 69.85534504 9.3013243 69.89135742 13.46435547 C69.90638075 14.87848687 69.92680555 16.29257218 69.95288086 17.70654297 C69.98955204 19.74718647 70.00635286 21.78721042 70.01953125 23.828125 C70.0352417 25.05354004 70.05095215 26.27895508 70.06713867 27.54150391 C69.5721938 32.53352852 67.95223248 35.58109084 64.66548157 39.32318115 C60.35996841 41.74538298 56.5651991 41.50463272 51.70385742 41.43066406 C50.69850952 41.43124817 49.69316162 41.43183228 48.65734863 41.43243408 C45.34022279 41.42965132 42.02399978 41.39854922 38.70703125 41.3671875 C36.40489696 41.35972582 34.10275632 41.35403254 31.8006134 41.35003662 C25.74568094 41.3347747 19.69113316 41.2954875 13.63635254 41.2512207 C7.456189 41.21028039 1.27596322 41.19202822 -4.90429688 41.171875 C-17.02751263 41.12899426 -29.15044306 41.06073571 -41.2734375 40.9765625 C-39.95412877 36.90625758 -38.49379206 33.25239202 -36.4453125 29.4921875 C-35.89230469 28.47382813 -35.33929688 27.45546875 -34.76953125 26.40625 C-34.19332031 25.35695313 -33.61710937 24.30765625 -33.0234375 23.2265625 C-32.46269531 22.19273437 -31.90195312 21.15890625 -31.32421875 20.09375 C-29.6600608 17.04215321 -27.99063627 13.99872314 -26.2734375 10.9765625 C-25.99853485 10.12933624 -25.7236322 9.28210999 -25.44039917 8.40921021 C-20.96321569 -2.67485668 -10.16254435 -0.27613163 0 0 Z " fill="#EDC655" transform="translate(427.2734375,395.0234375)"/>
<path d="M0 0 C-3.82257807 3.82691096 -7.6543051 7.64457208 -11.48699951 11.46134949 C-14.98806872 14.94909193 -18.48654415 18.43943103 -21.98486328 21.92993164 C-23.83456405 23.77456966 -25.6851564 25.61831408 -27.53662109 27.46118164 C-30.20904144 30.12152994 -32.87827016 32.78504383 -35.546875 35.44921875 C-36.37910583 36.2762883 -37.21133667 37.10335785 -38.06878662 37.95549011 C-38.83338196 38.72000992 -39.59797729 39.48452972 -40.38574219 40.2722168 C-41.06127136 40.94552536 -41.73680054 41.61883392 -42.43280029 42.31254578 C-44.08196093 43.92976884 -44.08196093 43.92976884 -45 46 C-45.66 46 -46.32 46 -47 46 C-47.24612534 46.57111511 -47.49225067 47.14223022 -47.74583435 47.73065186 C-49.21086422 50.38154795 -50.92251728 52.1695736 -53.06665039 54.30957031 C-53.90414322 55.15013977 -54.74163605 55.99070923 -55.60450745 56.85675049 C-56.50974655 57.75480408 -57.41498566 58.65285767 -58.34765625 59.578125 C-59.27468857 60.5046991 -60.20172089 61.43127319 -61.15684509 62.38592529 C-63.11491259 64.34243167 -65.07628571 66.29554048 -67.0402832 68.24609375 C-69.56309384 70.7518563 -72.07921245 73.26421052 -74.59313297 75.7788887 C-76.98768452 78.17310392 -79.38646603 80.56305589 -81.78515625 82.953125 C-82.69241959 83.85927551 -83.59968292 84.76542603 -84.53443909 85.69903564 C-85.36877975 86.52699646 -86.20312042 87.35495728 -87.06274414 88.20800781 C-87.80061661 88.94206848 -88.53848907 89.67612915 -89.29872131 90.43243408 C-91 92 -91 92 -92 92 C-95.42296759 70.31810053 -98.29407969 46.43608406 -84.921875 27.640625 C-61.7492352 -1.96005462 -35.54653246 -5.61180669 0 0 Z " fill="#FD4780" transform="translate(97,10)"/>
<path d="M0 0 C3.15066765 1.78244943 5.10946396 3.87522672 7.2734375 6.8046875 C9.04881871 8.77624342 11.00027427 9.9753335 13.25 11.375 C17.25886814 13.99412719 19.81154827 15.80746536 21.6875 20.375 C22.60498811 27.04911705 23.07217041 33.39092416 19 39.0625 C16.53698132 41.77530595 14.08459787 43.9059847 10.6875 45.375 C9.6975 45.375 8.7075 45.375 7.6875 45.375 C7.460625 46.1175 7.23375 46.86 7 47.625 C4.87433234 52.07877986 1.15804035 54.49817855 -3.3125 56.375 C-10.41444903 57.3103256 -15.59447042 56.72070248 -21.3125 52.375 C-22.116875 51.405625 -22.92125 50.43625 -23.75 49.4375 C-26.04302028 46.69706112 -27.33095108 45.63168854 -30.3125 43.9375 C-34.95657792 41.21601767 -38.33815182 37.59159815 -39.921875 32.36328125 C-41.05636051 26.58874999 -40.36206319 22.31409436 -37.5859375 17.234375 C-35.19219935 13.73922359 -32.18491974 11.23106739 -28.3046875 9.45703125 C-26.04369993 8.22900467 -24.98749596 6.97351164 -23.4375 4.9375 C-17.32196026 -2.36463701 -8.68636108 -3.92446181 0 0 Z " fill="#FCFBF3" transform="translate(194.3125,249.625)"/>
<path d="M0 0 C2.44203503 1.74993754 4.09754371 3.68504316 5.6953125 6.21484375 C5.6953125 6.87484375 5.6953125 7.53484375 5.6953125 8.21484375 C6.3965625 8.27671875 7.0978125 8.33859375 7.8203125 8.40234375 C13.04611664 9.87920144 15.86472772 12.83053578 18.5703125 17.33984375 C20.6178523 23.04813652 21.0084039 29.20962426 18.55859375 34.81640625 C15.68262704 39.45116625 13.00189884 42.40578022 7.6953125 44.21484375 C7.0353125 44.21484375 6.3753125 44.21484375 5.6953125 44.21484375 C5.43621094 44.80910156 5.17710937 45.40335937 4.91015625 46.015625 C3.60727074 48.37422482 2.31465946 49.68166963 0.2578125 51.40234375 C-0.33902344 51.91152344 -0.93585938 52.42070312 -1.55078125 52.9453125 C-5.88202644 56.08040089 -11.20087912 55.88779034 -16.3046875 55.21484375 C-21.68927535 53.00413562 -24.72474658 49.6897699 -28.3046875 45.21484375 C-29.6129453 44.34267189 -30.94944231 43.5120468 -32.3046875 42.71484375 C-37.10847134 39.86650352 -40.11447375 36.36184607 -42.3046875 31.21484375 C-43.2283958 25.98302052 -43.47918349 21.2091612 -40.7265625 16.53515625 C-36.97419404 12.16694106 -33.45606324 9.73572975 -28.3046875 7.21484375 C-27.07577122 5.89814774 -25.89131482 4.53922155 -24.7421875 3.15234375 C-18.24896783 -4.54070999 -8.64131812 -4.91540565 0 0 Z " fill="#FCFBF4" transform="translate(185.3046875,357.78515625)"/>
<path d="M0 0 C3.40356715 1.9870166 6.01610382 4.11142804 8.44921875 7.2109375 C10.61310036 10.232969 10.61310036 10.232969 13.76171875 11.5234375 C18.2553543 13.8161087 21.56246227 17.56242454 23.82421875 22.0859375 C24.76267759 29.70052126 24.21028045 35.14700812 19.48046875 41.3046875 C17.44724358 43.49136363 15.60035855 44.96047542 12.82421875 46.0859375 C11.83421875 46.0859375 10.84421875 46.0859375 9.82421875 46.0859375 C9.59734375 46.8284375 9.37046875 47.5709375 9.13671875 48.3359375 C7.21294092 52.3667101 4.49619191 54.31275459 0.484375 56.16796875 C-4.85881001 58.01179911 -10.51353167 58.31057231 -15.71484375 55.91796875 C-20.04415001 53.10174779 -23.57836876 49.7861332 -27.17578125 46.0859375 C-27.81515625 45.80234375 -28.45453125 45.51875 -29.11328125 45.2265625 C-31.74991234 43.76842561 -32.76324669 42.11966831 -34.36328125 39.5859375 C-34.87246094 38.791875 -35.38164062 37.9978125 -35.90625 37.1796875 C-38.73701994 32.51109461 -38.84807432 28.4801007 -38.17578125 23.0859375 C-35.95130683 16.90081352 -31.83467534 13.89662797 -26.375 10.59375 C-24.126699 9.05228608 -22.7198987 7.53741374 -21.05078125 5.3984375 C-15.96315664 -0.9018538 -7.53916436 -3.16726115 0 0 Z " fill="#FCFBF3" transform="translate(228.17578125,302.9140625)"/>
<path d="M0 0 C26.07 0 52.14 0 79 0 C79 8.58 79 17.16 79 26 C52.93 26 26.86 26 0 26 C0 17.42 0 8.84 0 0 Z " fill="#EDC553" transform="translate(367,297)"/>
<path d="M0 0 C1.28107384 -0.01226624 1.28107384 -0.01226624 2.58802795 -0.02478027 C5.41789046 -0.04961518 8.24770275 -0.06614809 11.07763672 -0.08056641 C12.04555019 -0.08589008 13.01346367 -0.09121376 14.01070786 -0.09669876 C19.13685056 -0.12342586 24.26296899 -0.14279961 29.38916016 -0.15722656 C33.62408115 -0.17055031 37.85851855 -0.19837481 42.09326172 -0.23925781 C47.21259293 -0.28867857 52.33148642 -0.31335963 57.45104599 -0.32045364 C59.3974167 -0.32715068 61.34377825 -0.34233223 63.29001236 -0.36634445 C83.10547581 -0.59681614 83.10547581 -0.59681614 89.63232422 5.19287109 C94.27564359 10.06835644 94.77899627 13.98548381 94.72998047 20.48583984 C94.72856552 21.19186844 94.72715057 21.89789703 94.72569275 22.62532043 C94.72010186 24.87704735 94.7075511 27.1286743 94.69482422 29.38037109 C94.68980804 30.90836445 94.68524534 32.43635936 94.68115234 33.96435547 C94.67013542 37.70723244 94.65287709 41.45003483 94.63232422 45.19287109 C91.33232422 45.19287109 88.03232422 45.19287109 84.63232422 45.19287109 C84.62297852 44.29979248 84.61363281 43.40671387 84.60400391 42.48657227 C84.55997118 39.17051947 84.49835561 35.8557617 84.42480469 32.5402832 C84.3965924 31.10583427 84.37537898 29.6712298 84.36132812 28.23657227 C84.33989973 26.17301808 84.29325955 24.11133403 84.24169922 22.04833984 C84.21027832 20.18665161 84.21027832 20.18665161 84.17822266 18.28735352 C83.91782274 15.21320487 83.91782274 15.21320487 82.12849426 13.52372742 C78.54304913 11.61211393 75.1122939 11.77473402 71.14770508 11.8046875 C70.29362564 11.79943054 69.4395462 11.79417358 68.55958557 11.78875732 C65.73859328 11.77556137 62.91816592 11.78429317 60.09716797 11.79443359 C58.13708894 11.79241293 56.17701065 11.78950155 54.2169342 11.78573608 C50.11045163 11.78131344 46.00416489 11.78774263 41.89770508 11.80175781 C36.62924356 11.81886089 31.36124013 11.80900098 26.09279537 11.79104042 C22.04623448 11.78021064 17.99978259 11.78364503 13.95321846 11.7914238 C12.01030994 11.79342745 10.06739158 11.79096076 8.12449455 11.78398514 C5.41191174 11.77638268 2.70007587 11.78795726 -0.01245117 11.8046875 C-1.22114365 11.79557846 -1.22114365 11.79557846 -2.45425415 11.7862854 C-6.64181054 11.80807822 -6.64181054 11.80807822 -10.362854 13.52372742 C-12.01404653 16.26657955 -11.81267074 18.88563208 -11.87939453 22.04833984 C-11.89734573 22.70997635 -11.91529694 23.37161285 -11.93379211 24.05329895 C-11.98788477 26.16225856 -12.02178509 28.27099208 -12.05517578 30.38037109 C-12.08835005 31.81204318 -12.12283983 33.24368543 -12.15869141 34.67529297 C-12.24360835 38.18093499 -12.310425 41.68665583 -12.36767578 45.19287109 C-15.66767578 45.19287109 -18.96767578 45.19287109 -22.36767578 45.19287109 C-22.46714498 40.76381387 -22.53942396 36.335362 -22.58740234 31.90551758 C-22.60741941 30.40117047 -22.63464205 28.89690021 -22.66943359 27.39282227 C-22.71839523 25.22050947 -22.74074231 23.04923203 -22.75830078 20.87646484 C-22.77924805 19.57249756 -22.80019531 18.26853027 -22.82177734 16.92504883 C-22.19899408 11.80650703 -20.3364609 8.08121123 -16.55126953 4.45068359 C-15.97505859 4.07685547 -15.39884766 3.70302734 -14.80517578 3.31787109 C-14.22638672 2.92857422 -13.64759766 2.53927734 -13.05126953 2.13818359 C-8.85027284 -0.22061269 -4.66750682 0.02462972 0 0 Z " fill="#EDC758" transform="translate(370.36767578125,276.80712890625)"/>
<path d="M0 0 C1.10031303 0.00303635 1.10031303 0.00303635 2.22285461 0.00613403 C2.99192642 0.00438171 3.76099823 0.00262939 4.55337524 0.00082397 C7.10793787 -0.00359483 9.66243185 -0.00065646 12.21699524 0.00271606 C13.98437005 0.00204303 15.75174477 0.00107302 17.51911926 -0.00018311 C21.22815327 -0.00166012 24.93716324 0.00049458 28.64619446 0.00515747 C33.41147017 0.01085476 38.17668956 0.00757577 42.9419632 0.00158501 C46.59295581 -0.00202052 50.24393497 -0.00088206 53.89492798 0.0017128 C55.65248623 0.00238209 57.41004569 0.00155357 59.16760254 -0.00076675 C61.61964678 -0.00329314 64.07159855 0.0005471 66.52363586 0.00613403 C67.25717789 0.0041098 67.99071991 0.00208557 68.74649048 0 C73.7589826 0.02126592 73.7589826 0.02126592 74.87324524 1.13552856 C74.97233826 3.46712912 75.00295028 5.80182798 74.99824524 8.13552856 C75.00211243 10.05365356 75.00211243 10.05365356 75.00605774 12.01052856 C74.87324524 15.13552856 74.87324524 15.13552856 73.87324524 16.13552856 C71.41419302 16.23584736 68.98321096 16.27171037 66.52363586 16.2649231 C65.75456406 16.26667542 64.98549225 16.26842773 64.19311523 16.27023315 C61.63855261 16.27465196 59.08405863 16.27171359 56.52949524 16.26834106 C54.76212043 16.2690141 52.99474571 16.26998411 51.22737122 16.27124023 C47.51833721 16.27271725 43.80932724 16.27056255 40.10029602 16.26589966 C35.33502031 16.26020237 30.56980092 16.26348135 25.80452728 16.26947212 C22.15353467 16.27307765 18.50255551 16.27193919 14.8515625 16.26934433 C13.09400425 16.26867504 11.33644479 16.26950356 9.57888794 16.27182388 C7.1268437 16.27435027 4.67489193 16.27051003 2.22285461 16.2649231 C1.48931259 16.26694733 0.75577057 16.26897156 0 16.27105713 C-5.01249212 16.24979121 -5.01249212 16.24979121 -6.12675476 15.13552856 C-6.22584778 12.80392801 -6.2564598 10.46922915 -6.25175476 8.13552856 C-6.25433289 6.85677856 -6.25691101 5.57802856 -6.25956726 4.26052856 C-6.04622232 -0.75935249 -4.57756542 0.01942071 0 0 Z " fill="#EDC653" transform="translate(455.1267547607422,350.8644714355469)"/>
<path d="M0 0 C18.48 0 36.96 0 56 0 C56 6.6 56 13.2 56 20 C37.52 20 19.04 20 0 20 C0 13.4 0 6.8 0 0 Z " fill="#EDC654" transform="translate(228,374)"/>
<path d="M0 0 C2.75 2.3125 2.75 2.3125 3.5625 4.8125 C5.29308053 8.45582744 7.98692478 8.97409903 11.65625 10.3203125 C13.75 11.3125 13.75 11.3125 15.75 14.3125 C16.18437823 18.80107501 16.38041871 21.17774632 14.1875 25.125 C11.75 27.3125 11.75 27.3125 8.25 28.75 C4.09268916 30.60594234 3.03762913 32.47255111 0.75 36.3125 C-2.92587779 38.76308519 -5.97980044 39.13818312 -10.25 38.3125 C-13.05656323 36.11605921 -14.78082424 34.40724344 -16.1875 31.125 C-17.8121225 28.35358515 -20.26877415 28.26649227 -23.25 27.3125 C-26.40639472 25.00918493 -27.14971476 23.68021253 -28.1875 19.875 C-28.25845985 15.83028879 -27.81599956 14.39169947 -25.25 11.3125 C-22.92703937 9.70429648 -20.76064281 8.50774578 -18.125 7.5 C-15.94315684 6.34424692 -15.94315684 6.34424692 -14.75 3.3125 C-13.25 0.3125 -13.25 0.3125 -11.4375 -1.0625 C-6.93925373 -2.34771322 -4.18468301 -2.17281618 0 0 Z " fill="#EDC757" transform="translate(180.25,365.6875)"/>
<path d="M0 0 C3.69870757 1.49709592 5.18869218 3.1080648 6.9375 6.5625 C8.48236257 9.55802619 8.73554874 9.89206071 12.0625 11.25 C13.031875 11.4975 14.00125 11.745 15 12 C17.77449626 14.17424466 18.50598123 15.91102741 18.9375 19.375 C19.19201951 22.71083023 19.09426718 23.81932124 17.5 26.875 C15 29 15 29 11.5 30.4375 C7.34268916 32.29344234 6.28762913 34.16005111 4 38 C0.32705125 40.4486325 -2.73268965 40.83183438 -7 40 C-10.21954645 37.46546343 -11.70432435 35.88702695 -13 32 C-14.993927 30.86644286 -14.993927 30.86644286 -17.375 30 C-20.54937576 28.75920166 -22.89715303 27.74630487 -25 25 C-25.51001853 20.48269303 -25.64515394 18.1612771 -23.4375 14.1875 C-21 12 -21 12 -17.5 10.5625 C-13.32484807 8.69859289 -12.32202516 6.84335198 -10 3 C-6.80689804 -0.19310196 -4.45494721 -0.54550374 0 0 Z " fill="#EDC757" transform="translate(224,311)"/>
<path d="M0 0 C2.4375 2.375 2.4375 2.375 4 5 C5.79006404 8.2848577 5.79006404 8.2848577 9.4375 9.4375 C14.45546318 11.63836105 14.45546318 11.63836105 16 15 C16.50471616 19.54244548 16.65355327 21.82360411 14.4375 25.8125 C12 28 12 28 8.5 29.4375 C4.34268916 31.29344234 3.28762913 33.16005111 1 37 C-2.67855688 39.45237125 -5.7250375 39.70095539 -10 39 C-12.69050139 37.03666115 -13.83503977 35.31492407 -15.375 32.375 C-17.51052896 29.25384228 -19.47015206 29.15260341 -23 28 C-26.09552728 25.2303177 -27.26911243 23.07901374 -27.5 19 C-27.26911243 14.92098626 -26.09552728 12.7696823 -23 10 C-22.01 9.690625 -21.02 9.38125 -20 9.0625 C-16.0121826 7.65014801 -15.16737338 5.54004319 -13 2 C-9.42127032 -2.10891186 -4.87641823 -1.49076506 0 0 Z " fill="#EDC656" transform="translate(191,258)"/>
<path d="M0 0 C0 19.8 0 39.6 0 60 C-10 60 -10 60 -12.59179688 58.21899414 C-14.72558515 53.34139386 -14.57086324 48.7662071 -14.53125 43.49609375 C-14.5350769 42.38065689 -14.53890381 41.26522003 -14.54284668 40.11598206 C-14.54556493 37.76163834 -14.53820995 35.40726439 -14.52148438 33.05297852 C-14.50005494 29.44674528 -14.52130106 25.84249987 -14.546875 22.23632812 C-14.54423211 19.94791227 -14.53910793 17.65949764 -14.53125 15.37109375 C-14.53934692 14.29186142 -14.54744385 13.21262909 -14.55578613 12.10069275 C-14.54317749 11.09607498 -14.53056885 10.09145721 -14.51757812 9.05639648 C-14.51439575 8.17435043 -14.51121338 7.29230438 -14.50793457 6.38352966 C-12.79670695 -1.64656324 -7.76216472 0 0 0 Z " fill="#EDC859" transform="translate(307,354)"/>
<path d="M0 0 C26.07 0 52.14 0 79 0 C79 8.58 79 17.16 79 26 C52.93 26 26.86 26 0 26 C0 17.42 0 8.84 0 0 Z M1 1 C1 8.92 1 16.84 1 25 C26.41 25 51.82 25 78 25 C78 17.08 78 9.16 78 1 C73.545 1.495 73.545 1.495 69 2 C66.83104352 2.08219141 64.66025868 2.12773818 62.48974609 2.12939453 C61.29175385 2.13254669 60.0937616 2.13569885 58.85946655 2.13894653 C57.59357697 2.1369223 56.32768738 2.13489807 55.0234375 2.1328125 C53.6854348 2.13348778 52.34743222 2.13445967 51.00942993 2.13571167 C48.22079283 2.13717707 45.432188 2.13507093 42.64355469 2.13037109 C39.08529288 2.12466336 35.52710635 2.12796678 31.96884727 2.13394356 C29.2114913 2.1375711 26.45415294 2.13640072 23.69679642 2.13381577 C21.75207723 2.13283328 19.80735734 2.13584673 17.86264038 2.13894653 C16.07510849 2.13421829 16.07510849 2.13421829 14.25146484 2.12939453 C12.69001236 2.12820114 12.69001236 2.12820114 11.09701538 2.12698364 C7.71328677 1.9882442 4.35253495 1.47893356 1 1 Z " fill="#EDD071" transform="translate(367,297)"/>
<path d="M0 0 C0.73511307 0.00359528 1.47022614 0.00719055 2.22761536 0.01089478 C2.99829346 0.01074875 3.76897156 0.01060272 4.56300354 0.01045227 C7.12237823 0.01115157 9.68168104 0.01894471 12.24104309 0.02676392 C14.01081299 0.02862804 15.7805834 0.03005197 17.550354 0.03105164 C22.2176505 0.03487728 26.88491607 0.04470796 31.55220032 0.05575562 C36.31110719 0.06596873 41.07001905 0.07054904 45.82893372 0.07559204 C55.17334837 0.08633019 64.51774004 0.10340717 73.86213684 0.12442017 C73.86213684 0.45442017 73.86213684 0.78442017 73.86213684 1.12442017 C48.12213684 1.12442017 22.38213684 1.12442017 -4.13786316 1.12442017 C-3.80786316 5.41442017 -3.47786316 9.70442017 -3.13786316 14.12442017 C-1.75723946 14.11775833 -1.75723946 14.11775833 -0.34872437 14.11096191 C8.31813903 14.07091601 16.98497143 14.04045145 25.65190601 14.02079582 C30.10784662 14.01035104 34.56371088 13.99617918 39.01960754 13.97354126 C43.31842488 13.95183763 47.61716871 13.93985678 51.91603661 13.93466568 C53.55751897 13.93096546 55.19899724 13.92374 56.84044838 13.91296005 C59.13658522 13.89847799 61.43241688 13.89644083 63.72859192 13.89736938 C65.03653214 13.89292816 66.34447235 13.88848694 67.69204712 13.88391113 C70.86213684 14.12442017 70.86213684 14.12442017 73.86213684 16.12442017 C63.57909146 16.14754392 53.29605222 16.16533542 43.01298618 16.17623234 C38.23865404 16.1814611 33.46433963 16.18855861 28.6900177 16.19985962 C24.08647422 16.21068876 19.48294785 16.21669706 14.87939262 16.21929741 C13.11904061 16.22115161 11.35868958 16.22477213 9.5983448 16.23015022 C7.14141407 16.23736102 4.68455489 16.23841109 2.22761536 16.23794556 C1.49250229 16.24154083 0.75738922 16.24513611 0 16.24884033 C-5.023811 16.23847233 -5.023811 16.23847233 -6.13786316 15.12442017 C-6.23695618 12.79281962 -6.2675682 10.45812075 -6.26286316 8.12442017 C-6.26544128 6.84567017 -6.26801941 5.56692017 -6.27067566 4.24942017 C-6.05704768 -0.77712044 -4.58131516 0.00945479 0 0 Z " fill="#ECC861" transform="translate(455.1378631591797,350.8755798339844)"/>
<path d="M0 0 C2 3 2 3 1.75 5.5 C1 8 1 8 -1 11 C-0.01 12.32 0.98 13.64 2 15 C1.01 15.66 0.02 16.32 -1 17 C-4.3 13.7 -7.6 10.4 -11 7 C-8.41288499 1.82576997 -6.08015861 -0.96002504 0 0 Z " fill="#FEEFF1" transform="translate(31,44)"/>
<path d="M0 0 C1.7325 0.1546875 1.7325 0.1546875 3.5 0.3125 C5.80163882 3.76495824 5.84490322 5.25988713 5.5 9.3125 C3.5 11.3125 3.5 11.3125 0.5625 11.625 C-2.5 11.3125 -2.5 11.3125 -4.375 10.1875 C-6.00531294 7.47031176 -5.83015665 5.41597254 -5.5 2.3125 C-3.5 0.3125 -3.5 0.3125 0 0 Z " fill="#FEE2EF" transform="translate(46.5,31.6875)"/>
<path d="M0 0 C0.33 0 0.66 0 1 0 C0.98839844 0.66386719 0.97679687 1.32773437 0.96484375 2.01171875 C0.91878804 6.5185991 1.0454956 10.58541713 2 15 C2.14533606 19.9293146 1.74225515 24.56645059 1 29.4375 C0.814375 30.67371094 0.62875 31.90992188 0.4375 33.18359375 C0.293125 34.11300781 0.14875 35.04242188 0 36 C-0.99 36 -1.98 36 -3 36 C-2.59518114 23.88505519 -2.10214725 11.95978923 0 0 Z " fill="#EDCB6A" transform="translate(8,297)"/>
<path d="M0 0 C0.99 0.33 1.98 0.66 3 1 C2.34 1.66 1.68 2.32 1 3 C0.66914227 5.26267725 0.66914227 5.26267725 0.68115234 7.90869141 C0.66128265 8.92959869 0.64141296 9.95050598 0.62094116 11.00234985 C0.60938995 12.10759003 0.59783875 13.2128302 0.5859375 14.3515625 C0.56657135 15.4807309 0.5472052 16.60989929 0.5272522 17.77328491 C0.46732931 21.39044572 0.42101998 25.00763813 0.375 28.625 C0.33683195 31.07293078 0.29778092 33.52084796 0.2578125 35.96875 C0.16161741 41.97904624 0.07660735 47.98942393 0 54 C-0.33 54 -0.66 54 -1 54 C-1.33 36.51 -1.66 19.02 -2 1 C-1.34 0.67 -0.68 0.34 0 0 Z " fill="#FAF8E8" transform="translate(293,355)"/>
<path d="M0 0 C0 0.66 0 1.32 0 2 C1.32 2.33 2.64 2.66 4 3 C0.29140769 2.86033274 -3.4167989 2.71216836 -7.125 2.5625 C-8.17171875 2.52318359 -9.2184375 2.48386719 -10.296875 2.44335938 C-15.27193842 2.23868904 -20.10770149 2.00723793 -25 1 C-25 0.67 -25 0.34 -25 0 C-16.51200811 -0.80542989 -8.46561098 -1.12298921 0 0 Z " fill="#EDCE70" transform="translate(324,679)"/>
<path d="M0 0 C0.66 0 1.32 0 2 0 C1.938125 0.9075 1.87625 1.815 1.8125 2.75 C2.02171921 6.37646635 2.82338226 7.25556894 5 10 C4.67 10.99 4.34 11.98 4 13 C2.82174642 12.09827532 1.65768423 11.17798498 0.5 10.25 C-0.1496875 9.73953125 -0.799375 9.2290625 -1.46875 8.703125 C-3 7 -3 7 -3 3 C-2.34 3 -1.68 3 -1 3 C-0.67 2.01 -0.34 1.02 0 0 Z " fill="#FEE4EB" transform="translate(37,38)"/>
<path d="M0 0 C0 0.66 0 1.32 0 2 C1.98 1.67 3.96 1.34 6 1 C6.99 2.485 6.99 2.485 8 4 C4.89444745 3.72202422 1.79097058 3.42526358 -1.3125 3.125 C-2.63411133 3.00705078 -2.63411133 3.00705078 -3.98242188 2.88671875 C-4.82998047 2.80292969 -5.67753906 2.71914062 -6.55078125 2.6328125 C-7.33106689 2.55949707 -8.11135254 2.48618164 -8.9152832 2.41064453 C-11 2 -11 2 -14 0 C-3.86206897 -1.93103448 -3.86206897 -1.93103448 0 0 Z " fill="#FAF3E2" transform="translate(391,11)"/>
<path d="M0 0 C0.33 0 0.66 0 1 0 C1.33794471 3.02038089 1.67048433 6.04119756 2 9.0625 C2.09539063 9.91005859 2.19078125 10.75761719 2.2890625 11.63085938 C2.81056158 16.45472589 3.10532727 21.14836264 3 26 C1.35173889 23.03312999 0.55728913 20.34373475 0 17 C-0.33 17 -0.66 17 -1 17 C-0.67 11.39 -0.34 5.78 0 0 Z " fill="#ECCB69" transform="translate(674,307)"/>
<path d="M0 0 C0.33 0 0.66 0 1 0 C1.0270817 2.72923388 1.04687847 5.45819637 1.0625 8.1875 C1.07087891 8.95642578 1.07925781 9.72535156 1.08789062 10.51757812 C1.10491934 14.48526789 0.98604115 18.12571234 0 22 C-0.99 21.34 -1.98 20.68 -3 20 C-3.29296875 17.8359375 -3.29296875 17.8359375 -3.1875 15.375 C-3.16042969 14.55773437 -3.13335938 13.74046875 -3.10546875 12.8984375 C-3.07066406 12.27195312 -3.03585937 11.64546875 -3 11 C-2.67 11.99 -2.34 12.98 -2 14 C-1.34 14 -0.68 14 0 14 C0 9.38 0 4.76 0 0 Z " fill="#EBCB66" transform="translate(675,363)"/>
<path d="M0 0 C0.33 0 0.66 0 1 0 C1 3.3 1 6.6 1 10 C0.01 10.33 -0.98 10.66 -2 11 C-2.73323796 13.01508358 -2.73323796 13.01508358 -3 15 C-3.66 15 -4.32 15 -5 15 C-4.54705135 13.24859857 -4.08741252 11.49892656 -3.625 9.75 C-3.36976563 8.77546875 -3.11453125 7.8009375 -2.8515625 6.796875 C-2.10401491 4.34162697 -1.22876183 2.24382595 0 0 Z " fill="#F9F5E3" transform="translate(659,454)"/>
<path d="M0 0 C0 0.99 0 1.98 0 3 C-0.66 3 -1.32 3 -2 3 C-2 3.66 -2 4.32 -2 5 C-7.625 6.125 -7.625 6.125 -11 5 C-11 4.34 -11 3.68 -11 3 C-9.54293274 2.49632243 -8.08429904 1.99717444 -6.625 1.5 C-5.81289063 1.2215625 -5.00078125 0.943125 -4.1640625 0.65625 C-2 0 -2 0 0 0 Z " fill="#FAF9ED" transform="translate(447,665)"/>
<path d="M0 0 C1.09570312 0.10183594 2.19140625 0.20367187 3.3203125 0.30859375 C4.16335938 0.39238281 5.00640625 0.47617188 5.875 0.5625 C5.875 0.8925 5.875 1.2225 5.875 1.5625 C0.265 2.2225 -5.345 2.8825 -11.125 3.5625 C-6.95525952 -0.60724048 -5.70303352 -0.54603512 0 0 Z " fill="#FCF8EF" transform="translate(299.125,10.4375)"/>
<path d="M0 0 C0.66 0.33 1.32 0.66 2 1 C1.38125 1.5775 0.7625 2.155 0.125 2.75 C-1.82992731 4.81992303 -2.78339622 6.47989217 -4 9 C-4.99 9.495 -4.99 9.495 -6 10 C-6.4683265 12.58605332 -6.4683265 12.58605332 -6.625 15.5625 C-6.69976562 16.57441406 -6.77453125 17.58632813 -6.8515625 18.62890625 C-6.90054688 19.41136719 -6.94953125 20.19382812 -7 21 C-7.33 21 -7.66 21 -8 21 C-8.65693856 15.60762931 -9.22292487 10.92288844 -6.21875 6.19921875 C-4.23242106 4.00656338 -2.21601398 1.95879807 0 0 Z " fill="#F7EBCC" transform="translate(151,368)"/>
<path d="M0 0 C0.33 1.32 0.66 2.64 1 4 C-0.25 5.75 -0.25 5.75 -2 7 C-2.99 7 -3.98 7 -5 7 C-5.66 8.32 -6.32 9.64 -7 11 C-7.99 11 -8.98 11 -10 11 C-6.7 7.37 -3.4 3.74 0 0 Z " fill="#F9F5E4" transform="translate(592,569)"/>
<path d="M0 0 C0 3 0 3 -1 6 C-1.99 6 -2.98 6 -4 6 C-3.67 6.99 -3.34 7.98 -3 9 C-4.32 9.99 -5.64 10.98 -7 12 C-7.66 11.34 -8.32 10.68 -9 10 C-6.03 6.7 -3.06 3.4 0 0 Z " fill="#ECCB60" transform="translate(93,119)"/>
<path d="M0 0 C0.99 0.33 1.98 0.66 3 1 C3 5.95 3 10.9 3 16 C0.65229357 12.47844036 0.62330386 10.49228157 0.375 6.3125 C0.30023438 5.13300781 0.22546875 3.95351563 0.1484375 2.73828125 C0.09945313 1.83464844 0.05046875 0.93101562 0 0 Z " fill="#ECC961" transform="translate(437,350)"/>
<path d="M0 0 C1.45792884 -0.05399736 2.91642712 -0.09279177 4.375 -0.125 C5.18710937 -0.14820312 5.99921875 -0.17140625 6.8359375 -0.1953125 C9 0 9 0 11 2 C11 2.99 11 3.98 11 5 C7.37 4.01 3.74 3.02 0 2 C0 1.34 0 0.68 0 0 Z " fill="#F9F7E6" transform="translate(436,22)"/>
<path d="M0 0 C3.96 0 7.92 0 12 0 C8.6325319 1.68373405 5.84984234 2.68218415 2.25 3.625 C1.26515625 3.88539062 0.2803125 4.14578125 -0.734375 4.4140625 C-1.85585937 4.70410156 -1.85585937 4.70410156 -3 5 C-3 4.01 -3 3.02 -3 2 C-2.01 2 -1.02 2 0 2 C0 1.34 0 0.68 0 0 Z " fill="#F9F7E7" transform="translate(238,22)"/>
<path d="M0 0 C0.66 0.33 1.32 0.66 2 1 C2 1.66 2 2.32 2 3 C1.34 3 0.68 3 0 3 C0 3.66 0 4.32 0 5 C-1.66279327 6.0064275 -3.32983484 7.00585407 -5 8 C-5.99 9.485 -5.99 9.485 -7 11 C-7.66 10.67 -8.32 10.34 -9 10 C-8.06862408 8.70391053 -7.1296434 7.41328368 -6.1875 6.125 C-5.66542969 5.40570313 -5.14335937 4.68640625 -4.60546875 3.9453125 C-3 2 -3 2 0 0 Z " fill="#F9F6DF" transform="translate(350,273)"/>
<path d="M0 0 C1.32 0.33 2.64 0.66 4 1 C3.01 2.485 3.01 2.485 2 4 C0.68 4 -0.64 4 -2 4 C-1.67 6.64 -1.34 9.28 -1 12 C-1.66 12 -2.32 12 -3 12 C-3.75 8.8125 -3.75 8.8125 -4 5 C-2.0625 2.0625 -2.0625 2.0625 0 0 Z " fill="#ECC865" transform="translate(168,268)"/>
<path d="M0 0 C0.66 0 1.32 0 2 0 C3.02611949 1.65071396 4.02308143 3.31970006 5 5 C6.58245275 6.75149165 6.58245275 6.75149165 8 8 C3.55063291 8.36075949 3.55063291 8.36075949 1.1875 6.8125 C-0.36678206 4.44017475 -0.22537188 2.77958655 0 0 Z " fill="#FEF9FB" transform="translate(41,35)"/>
<path d="M0 0 C1.32 0.66 2.64 1.32 4 2 C4 3.32 4 4.64 4 6 C2.35 5.67 0.7 5.34 -1 5 C-0.67 3.35 -0.34 1.7 0 0 Z " fill="#FC4699" transform="translate(45,34)"/>
<path d="M0 0 C0.33 0 0.66 0 1 0 C0.67 2.64 0.34 5.28 0 8 C-0.66 8 -1.32 8 -2 8 C-2.66 9.65 -3.32 11.3 -4 13 C-5.0169313 10.34501768 -5.13022151 9.30844625 -4.00390625 6.640625 C-3.52824219 5.85171875 -3.05257813 5.0628125 -2.5625 4.25 C-2.08941406 3.45078125 -1.61632812 2.6515625 -1.12890625 1.828125 C-0.75636719 1.22484375 -0.38382812 0.6215625 0 0 Z " fill="#FAF3DD" transform="translate(312,329)"/>
<path d="M0 0 C0.66 0.99 1.32 1.98 2 3 C0.03681826 6.53372712 -2.04070881 9.24479785 -5 12 C-5.99 11.67 -6.98 11.34 -8 11 C-7.38511719 10.31164062 -7.38511719 10.31164062 -6.7578125 9.609375 C-6.21898437 8.99578125 -5.68015625 8.3821875 -5.125 7.75 C-4.59132812 7.14671875 -4.05765625 6.5434375 -3.5078125 5.921875 C-2.0202513 4.02581254 -0.99677564 2.18709995 0 0 Z " fill="#EDCB68" transform="translate(251,337)"/>
<path d="M0 0 C2.24497221 2.24497221 2.37003419 2.96027349 2.75 6 C2.84796875 6.70125 2.9459375 7.4025 3.046875 8.125 C3 10 3 10 1 12 C-0.26237731 9.47524538 -0.09856404 7.68799534 -0.0625 4.875 C-0.05347656 3.96492188 -0.04445312 3.05484375 -0.03515625 2.1171875 C-0.02355469 1.41851562 -0.01195312 0.71984375 0 0 Z " fill="#F6F3DD" transform="translate(190,326)"/>
<path d="M0 0 C2 2 2 2 2 6 C1.01 6 0.02 6 -1 6 C-1.12375 6.639375 -1.2475 7.27875 -1.375 7.9375 C-1.58125 8.618125 -1.7875 9.29875 -2 10 C-2.99 10.495 -2.99 10.495 -4 11 C-3.52269162 9.5410574 -3.04308958 8.08286504 -2.5625 6.625 C-2.29566406 5.81289063 -2.02882813 5.00078125 -1.75390625 4.1640625 C-1 2 -1 2 0 0 Z " fill="#FAF3E0" transform="translate(652,472)"/>
<path d="M0 0 C2 0 2 0 3.5625 1.0625 C5.64056847 3.86337489 5.67810527 6.58791584 6 10 C5.34 10 4.68 10 4 10 C2.68 6.7 1.36 3.4 0 0 Z " fill="#FBF8EB" transform="translate(643,198)"/>
<path d="M0 0 C-2.72164676 2.72164676 -5.29514545 3.10572476 -9 4 C-10.32 4 -11.64 4 -13 4 C-10.81006393 1.81006393 -9.4012702 1.27802011 -6.5 0.3125 C-5.7059375 0.04050781 -4.911875 -0.23148438 -4.09375 -0.51171875 C-2 -1 -2 -1 0 0 Z " fill="#F8F1D4" transform="translate(464,660)"/>
<path d="M0 0 C0.66 0.99 1.32 1.98 2 3 C1 6 1 6 -2 8 C-2.33 8.99 -2.66 9.98 -3 11 C-3.66 11 -4.32 11 -5 11 C-3.55049545 7.2089881 -1.84827434 3.6125362 0 0 Z " fill="#ECCC67" transform="translate(399,410)"/>
<path d="M0 0 C0.66 0 1.32 0 2 0 C1.01 2.97 0.02 5.94 -1 9 C-1.66 9 -2.32 9 -3 9 C-2.25 2.25 -2.25 2.25 0 0 Z " fill="#FBFAF0" transform="translate(36,199)"/>
<path d="M0 0 C1.32 0.33 2.64 0.66 4 1 C3.34 2.32 2.68 3.64 2 5 C0.68 4.67 -0.64 4.34 -2 4 C-1.34 2.68 -0.68 1.36 0 0 Z " fill="#FD6577" transform="translate(26,47)"/>
<path d="M0 0 C0.33 0.99 0.66 1.98 1 3 C-0.44197868 5.88395737 -2.70644235 7.76525152 -5 10 C-5.66 9.67 -6.32 9.34 -7 9 C-4.69 6.03 -2.38 3.06 0 0 Z " fill="#FAF4DF" transform="translate(609,548)"/>
<path d="M0 0 C0.66 0.33 1.32 0.66 2 1 C0.80100302 4.0831351 -0.47700477 7.06279492 -2 10 C-2.66 10 -3.32 10 -4 10 C-2.8905928 6.51329166 -1.73662334 3.22515763 0 0 Z " fill="#F9F4E1" transform="translate(647,484)"/>
<path d="M0 0 C0.33 0.66 0.66 1.32 1 2 C1.66 2.33 2.32 2.66 3 3 C1 5 1 5 -1 6 C-1.33 6.99 -1.66 7.98 -2 9 C-2.66 9 -3.32 9 -4 9 C-2.94124926 5.59687262 -1.99097846 2.98646769 0 0 Z " fill="#FAF5E3" transform="translate(382,423)"/>
<path d="M0 0 C-0.38597015 2.79828356 -0.80136573 3.8205884 -2.9375 5.75 C-5 7 -5 7 -7 7 C-7 5 -7 5 -5 3 C-4.505 2.46375 -4.01 1.9275 -3.5 1.375 C-2 0 -2 0 0 0 Z " fill="#FBF7E5" transform="translate(200,297)"/>
<path d="M0 0 C2.34058637 2.12780579 3.70700306 4.11562221 5 7 C3.68 7.33 2.36 7.66 1 8 C0.40267181 5.23735711 0 2.83967231 0 0 Z " fill="#FAF5E7" transform="translate(174,288)"/>
<path d="M0 0 C0 0.66 0 1.32 0 2 C-2.97 2.66 -5.94 3.32 -9 4 C-8.67 3.01 -8.34 2.02 -8 1 C-5.29120665 -0.35439668 -2.99066732 -0.06501451 0 0 Z " fill="#ECCB63" transform="translate(188,257)"/>
<path d="M0 0 C0 3 0 3 -1.53125 4.60546875 C-2.1809375 5.12753906 -2.830625 5.64960937 -3.5 6.1875 C-4.1496875 6.71730469 -4.799375 7.24710937 -5.46875 7.79296875 C-5.9740625 8.19128906 -6.479375 8.58960937 -7 9 C-7.66 8.67 -8.32 8.34 -9 8 C-6.03 5.36 -3.06 2.72 0 0 Z " fill="#EBCC6B" transform="translate(132,82)"/>
<path d="M0 0 C0.66 0 1.32 0 2 0 C2.33 0.99 2.66 1.98 3 3 C0.36 4.65 -2.28 6.3 -5 8 C-5 7.01 -5 6.02 -5 5 C-4.01 5 -3.02 5 -2 5 C-1.67 4.01 -1.34 3.02 -1 2 C-0.67 1.34 -0.34 0.68 0 0 Z " fill="#FAF7E3" transform="translate(147,67)"/>
<path d="M0 0 C4.29 0.33 8.58 0.66 13 1 C13 1.33 13 1.66 13 2 C10.03 2.66 7.06 3.32 4 4 C4 3.34 4 2.68 4 2 C2.68 1.34 1.36 0.68 0 0 Z " fill="#FCF7EA" transform="translate(279,677)"/>
<path d="M0 0 C2.3129482 2.3129482 2.49580975 3.47904875 3.125 6.625 C3.29257812 7.44226563 3.46015625 8.25953125 3.6328125 9.1015625 C3.81457031 10.04128906 3.81457031 10.04128906 4 11 C2.68 10.67 1.36 10.34 0 10 C0 6.7 0 3.4 0 0 Z " fill="#F8F2DF" transform="translate(18,441)"/>
<path d="M0 0 C0.66 0 1.32 0 2 0 C0.74194623 4.50802601 -0.90407165 7.4912812 -4 11 C-4 9.68 -4 8.36 -4 7 C-3.34 7 -2.68 7 -2 7 C-1.34 4.69 -0.68 2.38 0 0 Z " fill="#FAF7E5" transform="translate(398,408)"/>
<path d="M0 0 C2.50298434 2.93828597 3.46930939 5.17902761 4 9 C3.01 9 2.02 9 1 9 C0.67 6.03 0.34 3.06 0 0 Z " fill="#F9F6E6" transform="translate(470,281)"/>
<path d="M0 0 C3.0831351 1.19899698 6.06279492 2.47700477 9 4 C8.67 4.99 8.34 5.98 8 7 C6.66382648 6.02471263 5.3311249 5.04466681 4 4.0625 C3.2575 3.51722656 2.515 2.97195313 1.75 2.41015625 C1.1725 1.94480469 0.595 1.47945312 0 1 C0 0.67 0 0.34 0 0 Z " fill="#EDCB67" transform="translate(109,589)"/>
<path d="M0 0 C1.67542976 0.28604898 3.34385343 0.61781233 5 1 C3.3545622 2.68762851 1.68711423 4.3540349 0 6 C-0.33 6 -0.66 6 -1 6 C-1.042721 4.33388095 -1.04063832 2.66617115 -1 1 C-0.67 0.67 -0.34 0.34 0 0 Z " fill="#EBCA5F" transform="translate(349,269)"/>
<path d="M0 0 C0.33 0.66 0.66 1.32 1 2 C1.66 2 2.32 2 3 2 C2.34 3.32 1.68 4.64 1 6 C0.01 6 -0.98 6 -2 6 C-1.34 4.02 -0.68 2.04 0 0 Z " fill="#FBF9EE" transform="translate(74,135)"/>
<path d="M0 0 C-1.375 2 -1.375 2 -3 4 C-3.66 4 -4.32 4 -5 4 C-5 3.34 -5 2.68 -5 2 C-5.66 1.67 -6.32 1.34 -7 1 C-3.375 -1.125 -3.375 -1.125 0 0 Z " fill="#FBFAEE" transform="translate(137,78)"/>
<path d="M0 0 C-2.39509338 2.89932357 -4.31245243 3.50168276 -8 4 C-7.25 2.0625 -7.25 2.0625 -6 0 C-3.40292416 -1.05506206 -2.5386068 -1.2693034 0 0 Z " fill="#FBF8E3" transform="translate(203,287)"/>
<path d="M0 0 C2.64 0.66 5.28 1.32 8 2 C4.91190305 3.76462683 3.76687864 4 0 4 C0 2.68 0 1.36 0 0 Z " fill="#FCF7ED" transform="translate(235,665)"/>
<path d="M0 0 C0.94875 0.350625 1.8975 0.70125 2.875 1.0625 C2.875 1.7225 2.875 2.3825 2.875 3.0625 C0.5318787 2.80688677 -1.80343403 2.46979228 -4.125 2.0625 C-4.455 1.4025 -4.785 0.7425 -5.125 0.0625 C-3.125 -0.9375 -3.125 -0.9375 0 0 Z " fill="#FBF9EC" transform="translate(200.125,650.9375)"/>
<path d="M0 0 C0 0.99 0 1.98 0 3 C-2 5 -2 5 -4.625 5.125 C-5.40875 5.08375 -6.1925 5.0425 -7 5 C-2.25 1.125 -2.25 1.125 0 0 Z " fill="#F8F4D9" transform="translate(508,637)"/>
<path d="M0 0 C4 4.625 4 4.625 4 8 C3.01 7.67 2.02 7.34 1 7 C1 6.34 1 5.68 1 5 C0.34 4.67 -0.32 4.34 -1 4 C-0.67 2.68 -0.34 1.36 0 0 Z " fill="#FBF4E3" transform="translate(152,386)"/>
<path d="M0 0 C0.33 0.99 0.66 1.98 1 3 C-0.75 5.0625 -0.75 5.0625 -3 7 C-5.25 6.75 -5.25 6.75 -7 6 C-6.01 5.67 -5.02 5.34 -4 5 C-2.61423077 3.37667033 -1.27358732 1.71275535 0 0 Z " fill="#F9F3E0" transform="translate(161,360)"/>
<path d="M0 0 C0.99 0 1.98 0 3 0 C2.34 1.98 1.68 3.96 1 6 C0.34 6 -0.32 6 -1 6 C-1.042721 4.33388095 -1.04063832 2.66617115 -1 1 C-0.67 0.67 -0.34 0.34 0 0 Z " fill="#FAF9ED" transform="translate(29,213)"/>
</svg>
