<?xml version="1.0" encoding="UTF-8"?>
<svg version="1.1" xmlns="http://www.w3.org/2000/svg" width="694" height="685">
<path d="M0 0 C229.02 0 458.04 0 694 0 C694 226.05 694 452.1 694 685 C464.98 685 235.96 685 0 685 C0 458.95 0 232.9 0 0 Z " fill="#FEFEFE" transform="translate(0,0)"/>
<path d="M0 0 C229.02 0 458.04 0 694 0 C694 226.05 694 452.1 694 685 C464.98 685 235.96 685 0 685 C0 458.95 0 232.9 0 0 Z M262 16 C260.2675 16.42539062 260.2675 16.42539062 258.5 16.859375 C223.54636992 25.59778252 188.43145437 41.13261637 159 62 C157.83867421 62.81138766 156.67720865 63.62257529 155.515625 64.43359375 C148.47107669 69.38192243 141.65937864 74.5406068 135 80 C134.1646875 80.66128906 133.329375 81.32257813 132.46875 82.00390625 C117.57350848 93.8981947 103.22613544 107.37329916 91 122 C90.37351562 122.73734375 89.74703125 123.4746875 89.1015625 124.234375 C76.78954899 138.97217556 65.57056954 154.34610683 56 171 C55.57380371 171.73428223 55.14760742 172.46856445 54.70849609 173.22509766 C24.84843996 224.86729084 9.73148894 282.119615 9.8125 341.6875 C9.81310425 342.51827057 9.8137085 343.34904114 9.81433105 344.20498657 C9.8399468 357.23699774 10.27214282 370.0685702 12 383 C12.20931152 384.61720947 12.20931152 384.61720947 12.42285156 386.26708984 C14.09137518 398.94397259 15.84808065 411.54227668 19.38867188 423.85107422 C20.09454137 426.33232954 20.7565274 428.82398605 21.421875 431.31640625 C32.00489045 470.08612625 49.46819536 508.00381719 74 540 C74.81458059 541.08665643 75.628365 542.1739101 76.44140625 543.26171875 C91.00753687 562.61553887 107.41965752 581.414611 126 597 C126.54124512 597.45503906 127.08249023 597.91007813 127.64013672 598.37890625 C137.7183157 606.81469535 148.10024864 614.65711226 159 622 C159.70366699 622.47759766 160.40733398 622.95519531 161.13232422 623.44726562 C191.88322091 644.13919611 226.09103133 659.02973195 262 668 C263.04744385 668.26796387 264.0948877 668.53592773 265.17407227 668.81201172 C271.00358719 670.29455431 276.76882949 671.54807682 282.71484375 672.46875 C285.71539213 672.95397542 288.69109761 673.52324633 291.67382812 674.10620117 C336.45278831 682.59967045 386.1178127 679.86005062 430 668 C431.05445313 667.72671875 432.10890625 667.4534375 433.1953125 667.171875 C496.62453532 650.02884181 556.13872979 614.15859018 599 564 C599.81339844 563.06414063 600.62679687 562.12828125 601.46484375 561.1640625 C613.18804433 547.59546402 623.55217519 533.23400196 633 518 C633.41991211 517.3292041 633.83982422 516.6584082 634.27246094 515.96728516 C646.80170785 495.83344069 655.92741545 474.24505691 664 452 C664.27569824 451.24219238 664.55139648 450.48438477 664.83544922 449.70361328 C693.83911868 368.99860192 686.80668589 276.19553078 651 199 C643.15252462 182.57834517 634.38587297 166.94713684 624 152 C623.27296875 150.95070312 622.5459375 149.90140625 621.796875 148.8203125 C619.91033625 146.17455693 617.97584339 143.57967947 616 141 C615.58540527 140.45682129 615.17081055 139.91364258 614.74365234 139.35400391 C609.41839881 132.39993946 603.96056732 125.65454591 598.0234375 119.20703125 C596.25551137 117.27869483 594.56153954 115.31152022 592.875 113.3125 C584.59435057 103.83789647 575.53425574 94.87383846 565.6484375 87.08984375 C562.84704795 84.87930775 560.14810268 82.57072147 557.4375 80.25 C545.68855423 70.45412573 533.14822767 61.79814736 520 54 C518.90300781 53.30777344 517.80601562 52.61554687 516.67578125 51.90234375 C443.37270233 5.84048179 345.22813938 -6.60074474 262 16 Z " fill="#FDFDFD" transform="translate(0,0)"/>
<path d="M0 0 C0.85156677 -0.00671722 1.70313354 -0.01343445 2.58050537 -0.02035522 C5.3736365 -0.03923018 8.16652601 -0.04325405 10.9597168 -0.04541016 C12.91733394 -0.05184525 14.87495013 -0.05857414 16.83256531 -0.06558228 C20.92860136 -0.07752871 25.02455324 -0.0812658 29.12060547 -0.08007812 C34.34563169 -0.07987506 39.57011326 -0.10717626 44.79501057 -0.14162254 C48.8367303 -0.16395921 52.87832033 -0.1679136 56.92009544 -0.16685867 C58.84524601 -0.16920448 60.77040072 -0.17796989 62.69548988 -0.19352341 C87.14199242 -0.37255427 87.14199242 -0.37255427 96.6628418 8.64599609 C102.17518838 14.96942364 103.25231285 20.96225212 103.1940918 29.11865234 C103.19196938 30.24216095 103.19196938 30.24216095 103.18980408 31.3883667 C103.18422214 33.77246147 103.171673 36.15646113 103.15893555 38.54052734 C103.15391821 40.16031765 103.14935571 41.78010943 103.14526367 43.39990234 C103.13425862 47.36348046 103.11700646 51.3269878 103.09643555 55.29052734 C104.19777832 55.2723999 105.29912109 55.25427246 106.43383789 55.2355957 C107.89167879 55.2209352 109.34952418 55.20671694 110.80737305 55.19287109 C111.53174561 55.17977905 112.25611816 55.16668701 113.00244141 55.15319824 C118.6172252 55.1132069 122.74656787 55.65686064 127.09643555 59.29052734 C134.05436537 66.18701849 134.05436537 66.18701849 134.15893555 71.41552734 C134.13831055 72.36427734 134.11768555 73.31302734 134.09643555 74.29052734 C134.85263184 74.26958008 135.60882813 74.24863281 136.38793945 74.22705078 C139.83230154 74.1436215 143.27645062 74.0917811 146.72143555 74.04052734 C147.91124023 74.00701172 149.10104492 73.97349609 150.3269043 73.93896484 C161.37991565 73.81546751 161.37991565 73.81546751 166.09643555 78.29052734 C168.86149283 82.43811327 168.42722377 85.79354553 168.40893555 90.66552734 C168.42504883 91.51630859 168.44116211 92.36708984 168.45776367 93.24365234 C168.46153871 98.09080243 168.24208947 101.35654652 165.09643555 105.29052734 C161.15445657 108.73975895 157.92321981 109.41664217 152.7722168 109.38818359 C151.74418945 109.38496094 150.71616211 109.38173828 149.65698242 109.37841797 C148.58512695 109.37003906 147.51327148 109.36166016 146.40893555 109.35302734 C145.32547852 109.34851563 144.24202148 109.34400391 143.12573242 109.33935547 C140.4492447 109.32756477 137.77286778 109.31110798 135.09643555 109.29052734 C135.1075386 109.90725311 135.11864166 110.52397888 135.13008118 111.15939331 C135.24126239 117.61636781 135.31634526 124.07306752 135.37109375 130.53076172 C135.39613639 132.93614764 135.43018055 135.34145824 135.47363281 137.74658203 C135.53473435 141.21714941 135.56274917 144.68670506 135.5847168 148.15771484 C135.61052322 149.22166473 135.63632965 150.28561462 135.66291809 151.38180542 C135.66582165 159.22628299 134.01623716 166.01378394 128.58247375 171.94235229 C123.54155621 176.33103268 119.86290358 177.54021279 113.23989868 177.55122375 C112.55059403 177.5550493 111.86128937 177.55887485 111.1510967 177.56281632 C108.84194582 177.57313294 106.53304421 177.56915677 104.22387695 177.56518555 C102.56801625 177.5695328 100.91215757 177.57471599 99.25630188 177.58067322 C94.75832281 177.59407391 90.26042772 177.59464064 85.76243258 177.59210992 C82.00745954 177.5910408 78.25250354 177.59592212 74.49753416 177.60071534 C65.63823575 177.6118145 56.77897973 177.61224581 47.91967773 177.60620117 C38.78107059 177.6001618 29.64261742 177.61247053 20.50403655 177.63377124 C12.65763258 177.65138742 4.81127762 177.65738852 -3.0351454 177.6541335 C-7.7212509 177.65232032 -12.4072466 177.65496015 -17.0933342 177.66884804 C-21.50105332 177.6814218 -25.90853251 177.67948657 -30.31624794 177.66643715 C-31.93273945 177.66407073 -33.54924781 177.66680842 -35.16571999 177.67506027 C-37.37511153 177.68552436 -39.58369751 177.67743053 -41.7930603 177.66474915 C-43.64636743 177.66500076 -43.64636743 177.66500076 -45.5371151 177.66525745 C-52.45384662 176.89533422 -56.17777739 173.4105192 -60.4230957 168.27490234 C-63.70338854 163.87809822 -63.96982331 160.66485715 -63.90356445 155.29052734 C-64.70020508 155.33693359 -65.4968457 155.38333984 -66.31762695 155.43115234 C-72.73046651 155.64959457 -76.89783389 155.78284965 -81.90356445 151.29052734 C-82.48106445 150.81615234 -83.05856445 150.34177734 -83.65356445 149.85302734 C-87.06988496 145.58262672 -86.98431381 141.58271576 -86.90356445 136.29052734 C-87.64414597 136.3016304 -88.38472748 136.31273346 -89.14775085 136.32417297 C-96.13622124 136.42446992 -103.12458369 136.50054041 -110.11358929 136.5495882 C-113.70657305 136.57565278 -117.29896081 136.61099063 -120.89160156 136.66772461 C-124.36054631 136.72216069 -127.82891884 136.7519715 -131.29825783 136.76491356 C-133.26207496 136.77861183 -135.2256627 136.81762753 -137.18913269 136.85700989 C-146.00471651 136.85978226 -146.00471651 136.85978226 -150.21728516 134.19189453 C-152.27225947 130.65616053 -152.52132155 128.46130436 -152.49731445 124.38037109 C-152.49473633 123.06101562 -152.4921582 121.74166016 -152.48950195 120.38232422 C-152.475 119.70032959 -152.46049805 119.01833496 -152.44555664 118.31567383 C-152.4036074 116.23016224 -152.40449859 114.14787523 -152.41137695 112.06201172 C-152.29980614 100.65389612 -152.29980614 100.65389612 -148.90356445 97.29052734 C-146.18904114 96.80950928 -146.18904114 96.80950928 -142.87158203 96.83642578 C-141.00999199 96.83687897 -141.00999199 96.83687897 -139.11079407 96.83734131 C-137.75655477 96.85776781 -136.40232201 96.87863179 -135.0480957 96.89990234 C-133.66233638 96.90736397 -132.2765665 96.91305728 -130.89079285 96.91705322 C-127.24580687 96.93231612 -123.60145983 96.97160233 -119.95672607 97.01586914 C-116.2366195 97.05680845 -112.51640955 97.07506129 -108.79614258 97.09521484 C-101.49832544 97.13809702 -94.20103452 97.20635495 -86.90356445 97.29052734 C-86.93293091 96.37364136 -86.93293091 96.37364136 -86.96289062 95.43823242 C-86.9857312 94.23009888 -86.9857312 94.23009888 -87.0090332 92.99755859 C-87.02861084 92.20067627 -87.04818848 91.40379395 -87.06835938 90.58276367 C-86.72294078 85.77811888 -83.72597572 83.01503251 -80.27856445 79.97802734 C-76.48789348 77.28465587 -74.41691672 77.17868317 -69.77856445 77.22802734 C-68.68286133 77.23705078 -67.5871582 77.24607422 -66.45825195 77.25537109 C-65.61520508 77.26697266 -64.7721582 77.27857422 -63.90356445 77.29052734 C-64.00668945 76.30052734 -64.10981445 75.31052734 -64.21606445 74.29052734 C-64.19297039 68.57474752 -61.01216273 64.46501932 -57.15356445 60.48583984 C-51.51296717 55.4044397 -47.17256715 55.14167837 -39.65356445 55.22802734 C-38.90848633 55.23253906 -38.1634082 55.23705078 -37.39575195 55.24169922 C-35.56498805 55.25343488 -33.73426572 55.27136884 -31.90356445 55.29052734 C-31.9192749 54.30246094 -31.93498535 53.31439453 -31.95117188 52.29638672 C-32.00584298 48.59887987 -32.04004837 44.9014081 -32.06835938 41.20361328 C-32.0833619 39.60915093 -32.10377066 38.01472926 -32.12988281 36.42041016 C-32.1666458 34.11659657 -32.183376 31.81333274 -32.1965332 29.50927734 C-32.21201706 28.80685913 -32.22750092 28.10444092 -32.24345398 27.3807373 C-32.24601521 19.69340816 -29.74124767 13.47770285 -24.5012207 7.82568359 C-17.40316726 1.00530461 -9.38824271 -0.01082364 0 0 Z " fill="#0B0B0B" transform="translate(375.903564453125,263.70947265625)"/>
<path d="M0 0 C0.73637695 0.31517578 1.47275391 0.63035156 2.23144531 0.95507812 C32.86428064 14.21641778 61.13099014 33.86934196 86 56 C86.7727124 56.68594238 86.7727124 56.68594238 87.56103516 57.38574219 C98.34324804 67.00146847 108.85900836 76.93703687 117.83984375 88.28125 C120.07981618 91.10045581 122.40893886 93.82687799 124.75 96.5625 C153.71102051 131.39642096 175.61022323 174.11452968 187 218 C187.2170459 218.82161621 187.4340918 219.64323242 187.65771484 220.48974609 C196.52472862 254.45722965 198.5157314 288.07886529 198 323 C197.99129883 323.96776367 197.98259766 324.93552734 197.97363281 325.93261719 C197.84530474 336.96440636 196.29747653 347.79089092 194.6875 358.6875 C194.58676178 359.37806488 194.48602356 360.06862976 194.38223267 360.78012085 C185.92726953 417.96974706 160.48967647 473.35934883 124 518 C123.56220215 518.53689453 123.1244043 519.07378906 122.67333984 519.62695312 C110.86369139 534.03131129 98.14423081 547.86333743 84 560 C82.92143772 560.94220801 81.84335024 561.88495968 80.765625 562.828125 C73.75686711 568.93745156 66.6796149 574.74023997 59 580 C58.25862793 580.50789062 57.51725586 581.01578125 56.75341797 581.5390625 C29.91315822 599.85420761 2.59340822 613.89176998 -28 625 C-28.83901855 625.30808594 -29.67803711 625.61617187 -30.54248047 625.93359375 C-41.98984333 630.10063546 -53.61123224 632.94368382 -65.52075195 635.46875 C-67.87844581 635.97395353 -70.22791618 636.5081101 -72.578125 637.046875 C-80.63721841 638.83955958 -88.82064553 639.91584622 -97 641 C-97.81001465 641.10876465 -98.6200293 641.2175293 -99.45458984 641.32958984 C-124.18706055 644.49345482 -149.77332168 644.00932375 -174.5625 641.6875 C-175.83206543 641.56995361 -177.10163086 641.45240723 -178.40966797 641.33129883 C-185.47331211 640.59324281 -192.25553459 639.3782512 -199.15258789 637.68920898 C-202.56825774 636.86245463 -205.97171055 636.26578723 -209.4375 635.6875 C-259.65577116 626.65865779 -308.76178199 602.40209787 -348 570 C-348.51594727 569.57734863 -349.03189453 569.15469727 -349.56347656 568.71923828 C-363.14843823 557.56103368 -376.57765605 545.69958811 -388.015625 532.3203125 C-389.5295273 530.55011966 -391.06476703 528.79815218 -392.609375 527.0546875 C-406.55189884 511.23555748 -418.25242824 494.1147107 -429 476 C-429.41588379 475.30874023 -429.83176758 474.61748047 -430.26025391 473.90527344 C-445.67900534 448.18366967 -456.26756976 419.8790332 -464 391 C-464.32911377 389.78860352 -464.65822754 388.57720703 -464.99731445 387.32910156 C-467.42949229 378.1601948 -469.10505595 369.0044325 -470.38305664 359.60839844 C-470.68851127 357.3675813 -471.00830223 355.12915087 -471.33007812 352.890625 C-473.37024428 338.46858668 -474.16809678 324.20009699 -474.13037109 309.64233398 C-474.12502942 307.20094531 -474.13034246 304.75974239 -474.13671875 302.31835938 C-474.14369207 288.46829836 -473.80903033 274.59373799 -471.75 260.875 C-471.62214111 260.00866943 -471.49428223 259.14233887 -471.36254883 258.24975586 C-462.47104981 200.60706975 -439.54268797 144.15076932 -402.49267578 98.83056641 C-401.19465679 97.23872041 -399.92124258 95.62687284 -398.65234375 94.01171875 C-386.69097892 78.92027714 -372.77860874 64.34349707 -358 52 C-357.21625 51.33871094 -356.4325 50.67742187 -355.625 49.99609375 C-323.55228331 23.3165571 -287.98573159 3.64242564 -249 -11 C-248.31470215 -11.26055176 -247.6294043 -11.52110352 -246.92333984 -11.78955078 C-235.34883354 -16.13892879 -223.27561354 -18.61878712 -211.22705078 -21.27685547 C-207.93063681 -22.01554348 -204.64585325 -22.79655198 -201.359375 -23.578125 C-195.72348425 -24.88040535 -190.10863039 -25.87276047 -184.375 -26.625 C-183.42608887 -26.74979736 -182.47717773 -26.87459473 -181.49951172 -27.00317383 C-119.35790051 -34.82929852 -57.29157169 -24.72793912 0 0 Z M-180 -18 C-181.47771267 -17.82940803 -182.95557499 -17.66010676 -184.43359375 -17.4921875 C-190.20851481 -16.80250423 -195.47255747 -15.84962224 -201 -14 C-203.28607977 -13.57308149 -205.57868414 -13.18040437 -207.875 -12.8125 C-256.96263049 -4.15717688 -304.80609473 20.32843855 -343 52 C-343.98226562 52.80824219 -344.96453125 53.61648437 -345.9765625 54.44921875 C-359.85266257 65.96597576 -373.30823134 78.24915468 -385 92 C-385.73992187 92.86238281 -386.47984375 93.72476563 -387.2421875 94.61328125 C-403.0963803 113.32933313 -416.49888251 133.34358803 -428 155 C-428.51941162 155.97090576 -428.51941162 155.97090576 -429.04931641 156.96142578 C-445.58996134 188.11525873 -457.42210267 222.78135198 -461.72802734 257.83203125 C-461.98654593 259.89275389 -462.27706367 261.94569741 -462.58203125 264 C-464.6155028 278.04412004 -465.17107873 292.05898503 -465.13037109 306.22680664 C-465.12501051 308.43317556 -465.13036106 310.63934027 -465.13671875 312.84570312 C-465.14649393 327.85081812 -464.41969948 342.56150181 -461.875 357.375 C-461.65618164 358.65737549 -461.43736328 359.93975098 -461.21191406 361.26098633 C-450.47351984 422.54940852 -422.833245 479.91399773 -381 526 C-380.44344727 526.6182666 -379.88689453 527.2365332 -379.31347656 527.87353516 C-367.16846529 541.32449887 -354.27171789 553.70958828 -339.79785156 564.63476562 C-337.95264967 566.03595642 -336.128128 567.46126138 -334.3046875 568.890625 C-323.71916701 577.10699876 -312.50506544 584.14841907 -301 591 C-300.05108887 591.57226318 -299.10217773 592.14452637 -298.12451172 592.73413086 C-291.13468248 596.89642757 -284.02112332 600.55368598 -276.625 603.9375 C-274.93334717 604.71226685 -274.93334717 604.71226685 -273.20751953 605.50268555 C-215.97223676 631.33621223 -153.06236295 639.59979536 -91 631 C-90.10941895 630.88253418 -89.21883789 630.76506836 -88.30126953 630.64404297 C-82.83607466 629.91542103 -77.41462718 629.03970188 -72 628 C-70.85845459 627.78102051 -70.85845459 627.78102051 -69.69384766 627.55761719 C-2.39856512 614.11803833 63.63058841 575.4789469 108 523 C108.73734375 522.14019531 109.4746875 521.28039062 110.234375 520.39453125 C121.58723828 506.9988757 131.73638299 492.91275677 141 478 C141.40927734 477.35047363 141.81855469 476.70094727 142.24023438 476.03173828 C161.23346689 445.74502573 174.44947818 411.88128392 182 377 C182.26425781 375.9171875 182.52851562 374.834375 182.80078125 373.71875 C185.57847397 361.98121769 186.72269869 349.97631002 188 338 C188.09933838 337.16162598 188.19867676 336.32325195 188.30102539 335.45947266 C189.2971844 326.24923041 189.2009659 317.00257169 189.1875 307.75 C189.18623108 306.85684082 189.18496216 305.96368164 189.18365479 305.04345703 C188.96925106 225.87355256 159.95593106 146.80203848 105.48828125 88.671875 C103.41513439 86.4457644 101.41239535 84.18752382 99.4375 81.875 C92.87232364 74.32033534 85.6232645 67.46903784 78 61 C76.65421875 59.82050781 76.65421875 59.82050781 75.28125 58.6171875 C41.9175238 29.56264936 2.44513746 8.03370324 -39.68359375 -5.25488281 C-41.16114693 -5.73016657 -42.6333619 -6.22262022 -44.09765625 -6.73730469 C-51.09770826 -9.19511516 -58.27096142 -10.86301584 -65.5 -12.5 C-66.1748645 -12.65374084 -66.849729 -12.80748169 -67.54504395 -12.96588135 C-79.71961791 -15.71542963 -91.88809328 -17.5962045 -104.32348633 -18.74975586 C-106.0385958 -18.91011226 -107.7523227 -19.086557 -109.46362305 -19.28344727 C-118.72342423 -20.28950105 -128.00988191 -20.19716796 -137.3125 -20.1875 C-138.20162079 -20.18756042 -139.09074158 -20.18762085 -140.00680542 -20.18768311 C-153.43877265 -20.17467364 -166.66492597 -19.71167506 -180 -18 Z " fill="#0B0B0B" transform="translate(484,35)"/>
<path d="M0 0 C1.00076706 -0.00551503 1.00076706 -0.00551503 2.02175164 -0.01114148 C4.2679471 -0.02219611 6.51409633 -0.02602516 8.76031494 -0.02983093 C10.36661934 -0.03609427 11.97292229 -0.04274096 13.57922363 -0.04974365 C17.95126441 -0.06716608 22.32329424 -0.07770893 26.69536114 -0.08594918 C29.42616402 -0.09109703 32.1569635 -0.09717288 34.88776398 -0.10346031 C43.42967441 -0.12251642 51.97157618 -0.13674629 60.51350379 -0.14507228 C70.37753341 -0.15484528 80.24133867 -0.18116464 90.10528922 -0.22157317 C97.72659362 -0.25172422 105.34783367 -0.26654022 112.96919656 -0.26985329 C117.52236898 -0.27220507 122.07530183 -0.28118181 126.62841034 -0.30631447 C130.91302229 -0.32958239 135.19723671 -0.33383368 139.48189545 -0.32355309 C141.05324627 -0.32305729 142.62461657 -0.3293907 144.19590759 -0.34310913 C146.34429701 -0.36081423 148.49125766 -0.35373053 150.63964844 -0.34057617 C152.44154444 -0.3441587 152.44154444 -0.3441587 154.27984238 -0.34781361 C158.28603102 0.25419988 160.43291943 1.63012901 163.5737915 4.14717102 C165.5737915 7.14717102 165.5737915 7.14717102 165.5737915 10.14717102 C164.97101883 10.14859604 164.36824615 10.15002106 163.74720764 10.15148926 C157.46880694 10.17118814 151.19137822 10.22546581 144.91339111 10.29975891 C142.57101415 10.32294434 140.22853286 10.33733588 137.88604736 10.34272766 C134.51697734 10.35201278 131.14954959 10.39299672 127.78082275 10.44013977 C126.734814 10.43620712 125.68880524 10.43227448 124.61109924 10.42822266 C118.44027866 10.43682422 118.44027866 10.43682422 113.43585205 13.62886047 C112.82137207 14.45990295 112.20689209 15.29094543 111.5737915 16.14717102 C111.0787915 16.64217102 111.0787915 16.64217102 110.5737915 17.14717102 C110.26706835 20.38785982 110.29537061 23.64375272 110.2612915 26.89717102 C110.2322876 27.80467102 110.20328369 28.71217102 110.17340088 29.64717102 C110.13209293 33.99403829 110.14633591 36.45266585 112.46832275 40.22529602 C115.56728434 43.05403275 117.28983987 43.28036785 121.39068604 43.35249329 C122.39157257 43.37243851 123.39245911 43.39238373 124.42367554 43.41293335 C126.04872513 43.43800209 126.04872513 43.43800209 127.706604 43.46357727 C129.36706253 43.49474892 129.36706253 43.49474892 131.06106567 43.52655029 C134.60690949 43.59208094 138.15282905 43.65094716 141.6987915 43.70967102 C144.09853901 43.75285289 146.49827877 43.79646707 148.89801025 43.8405304 C154.78985917 43.94776594 160.68178447 44.0490235 166.5737915 44.14717102 C166.5737915 47.77717102 166.5737915 51.40717102 166.5737915 55.14717102 C165.41249222 55.10862503 164.25119293 55.07007904 163.05470276 55.03036499 C152.06638605 54.68089719 141.08137982 54.45473882 130.08796406 54.34664249 C124.43604997 54.28717314 118.79168266 54.18561539 113.1428833 53.9848175 C89.86460484 51.98596846 89.86460484 51.98596846 68.30447388 58.33018494 C63.52203341 63.58692881 61.26233705 69.37446336 59.46403503 76.16812134 C58.00749616 81.04218277 55.49307832 85.29562783 53.0112915 89.70967102 C52.23244886 91.20750452 51.45906327 92.70820921 50.69488525 94.21357727 C50.01811838 95.54064914 49.30739445 96.85065265 48.5737915 98.14717102 C48.10384766 99.20259094 47.63390381 100.25801086 47.14971924 101.34541321 C44.22078434 104.53112611 43.65131001 104.60066975 39.53326416 104.90766907 C37.43505145 104.94053442 35.33611251 104.93868872 33.237854 104.90888977 C31.56969131 104.91394279 31.56969131 104.91394279 29.86782837 104.9190979 C27.5158628 104.91879896 25.16385861 104.90354198 22.81207275 104.87446594 C19.21840855 104.83488707 15.62845156 104.85372637 12.034729 104.8795929 C9.74825639 104.87203135 7.46179196 104.86107544 5.175354 104.84638977 C4.10330719 104.85337387 3.03126038 104.86035797 1.92672729 104.86755371 C-6.3989204 104.71066932 -6.3989204 104.71066932 -10.02630615 101.91596985 C-14.40374992 96.86565553 -14.72972036 92.29858427 -14.74847412 85.7960968 C-14.75840393 84.96780365 -14.76833374 84.1395105 -14.77856445 83.28611755 C-14.8076969 80.55487203 -14.82139149 77.82385867 -14.8324585 75.09248352 C-14.84396911 73.18825782 -14.85548448 71.28403216 -14.86700439 69.37980652 C-14.88799181 65.39030379 -14.89969885 61.4008813 -14.90667725 57.41133118 C-14.91765046 52.30777146 -14.96572405 47.20527795 -15.02262115 42.10205269 C-15.05992801 38.16942778 -15.0702878 34.2370586 -15.073349 30.3042717 C-15.07938942 28.42322322 -15.09540431 26.54217857 -15.12171936 24.66130447 C-15.15596646 22.0257289 -15.15205509 19.39274419 -15.13909912 16.7570343 C-15.15752869 15.98589294 -15.17595825 15.21475159 -15.19494629 14.42024231 C-15.11275789 9.06306004 -13.5659493 6.36035298 -9.90895844 2.47338676 C-6.76511021 -0.3385648 -4.10923366 0.01463692 0 0 Z " fill="#FCFCFC" transform="translate(335.42620849609375,327.8528289794922)"/>
<path d="M0 0 C29.37 0 58.74 0 89 0 C89 33 89 33 84 39 C81.69701344 40.15149328 80.41003902 40.12336988 77.84921265 40.12025452 C76.97980545 40.12162918 76.11039825 40.12300385 75.21464539 40.12442017 C73.78074211 40.11902725 73.78074211 40.11902725 72.31787109 40.11352539 C70.81050636 40.11374443 70.81050636 40.11374443 69.27268982 40.1139679 C65.93958402 40.11326929 62.60653358 40.10547933 59.2734375 40.09765625 C56.96701081 40.09579188 54.66058372 40.09436807 52.35415649 40.09336853 C46.27468783 40.08954482 40.19524294 40.07971576 34.11578369 40.06866455 C27.91573407 40.0584473 21.71568061 40.05387024 15.515625 40.04882812 C3.34373954 40.03809338 -8.82812826 40.02101869 -21 40 C-19.76888273 36.88546228 -18.49235942 33.88280614 -16.93359375 30.91796875 C-16.52947266 30.14904297 -16.12535156 29.38011719 -15.70898438 28.58789062 C-15.28939453 27.79576172 -14.86980469 27.00363281 -14.4375 26.1875 C-14.04498047 25.43791016 -13.65246094 24.68832031 -13.24804688 23.91601562 C-8.99103464 15.84695187 -4.4778303 7.96058719 0 0 Z " fill="#FDFDFD" transform="translate(412,392)"/>
<path d="M0 0 C-3.82257807 3.82691096 -7.6543051 7.64457208 -11.48699951 11.46134949 C-14.98806872 14.94909193 -18.48654415 18.43943103 -21.98486328 21.92993164 C-23.83456405 23.77456966 -25.6851564 25.61831408 -27.53662109 27.46118164 C-30.20904144 30.12152994 -32.87827016 32.78504383 -35.546875 35.44921875 C-36.37910583 36.2762883 -37.21133667 37.10335785 -38.06878662 37.95549011 C-38.83338196 38.72000992 -39.59797729 39.48452972 -40.38574219 40.2722168 C-41.06127136 40.94552536 -41.73680054 41.61883392 -42.43280029 42.31254578 C-44.08196093 43.92976884 -44.08196093 43.92976884 -45 46 C-45.66 46 -46.32 46 -47 46 C-47.24612534 46.57111511 -47.49225067 47.14223022 -47.74583435 47.73065186 C-49.21086422 50.38154795 -50.92251728 52.1695736 -53.06665039 54.30957031 C-53.90414322 55.15013977 -54.74163605 55.99070923 -55.60450745 56.85675049 C-56.50974655 57.75480408 -57.41498566 58.65285767 -58.34765625 59.578125 C-59.27468857 60.5046991 -60.20172089 61.43127319 -61.15684509 62.38592529 C-63.11491259 64.34243167 -65.07628571 66.29554048 -67.0402832 68.24609375 C-69.56309384 70.7518563 -72.07921245 73.26421052 -74.59313297 75.7788887 C-76.98768452 78.17310392 -79.38646603 80.56305589 -81.78515625 82.953125 C-82.69241959 83.85927551 -83.59968292 84.76542603 -84.53443909 85.69903564 C-85.36877975 86.52699646 -86.20312042 87.35495728 -87.06274414 88.20800781 C-87.80061661 88.94206848 -88.53848907 89.67612915 -89.29872131 90.43243408 C-91 92 -91 92 -92 92 C-95.42296759 70.31810053 -98.29407969 46.43608406 -84.921875 27.640625 C-61.7492352 -1.96005462 -35.54653246 -5.61180669 0 0 Z " fill="#FD4780" transform="translate(102,6)"/>
<path d="M0 0 C2.67606823 1.66451444 4.32833385 3.5304062 5.953125 6.21484375 C5.953125 6.87484375 5.953125 7.53484375 5.953125 8.21484375 C6.654375 8.27671875 7.355625 8.33859375 8.078125 8.40234375 C12.72461605 9.71548253 15.77489857 12.60562713 18.59765625 16.4609375 C21.20335911 21.75494476 20.74950129 27.47834461 19.953125 33.21484375 C17.86948184 37.95495293 15.06855467 40.52842549 10.703125 43.21484375 C7.953125 44.21484375 7.953125 44.21484375 5.953125 44.21484375 C5.72625 44.95734375 5.499375 45.69984375 5.265625 46.46484375 C3.1467229 50.90444815 -0.57454408 53.36723186 -5.046875 55.21484375 C-10.53444974 55.87212986 -15.44746382 55.97092904 -20.484375 53.58984375 C-23.046875 51.21484375 -23.046875 51.21484375 -25.546875 48.15234375 C-27.82268816 45.08234053 -27.82268816 45.08234053 -30.984375 43.77734375 C-35.82231937 41.30900479 -38.77852212 37.46328749 -41.421875 32.77734375 C-43.01830196 26.23199321 -42.43691094 21.04146802 -39.046875 15.21484375 C-35.73322929 11.75622604 -32.63067501 8.74277709 -28.046875 7.21484375 C-26.59918496 5.67798522 -26.59918496 5.67798522 -25.234375 3.83984375 C-18.2156071 -4.53795029 -9.3525163 -4.59450538 0 0 Z " fill="#0B0B0B" transform="translate(190.046875,353.78515625)"/>
<path d="M0 0 C3.96590374 2.13548663 7.05998491 4.52159732 10.1875 7.75 C12.2750682 9.90457734 12.2750682 9.90457734 15.25 11.6875 C18.8537358 14.16506837 21.29235591 16.83471183 23.25 20.75 C24.60950244 33.86317542 24.60950244 33.86317542 20.75 39.3125 C17.93953294 42.4418853 14.77421761 44.48378859 11.12890625 46.53125 C9.17085008 47.80134049 8.03236429 49.02868286 6.625 50.875 C3.48089638 54.68102018 0.85309821 56.4396969 -4.109375 57.03125 C-9.64551993 57.23256436 -13.90100966 56.64074424 -18.75 53.75 C-20.31890618 52.07346438 -21.72852775 50.32264287 -23.14453125 48.515625 C-24.90360592 46.58107086 -26.62291432 45.44045115 -28.875 44.125 C-33.38991294 41.47981246 -35.89249857 38.72225329 -38 33.875 C-39.55812343 27.38281903 -39.04377421 22.59379295 -35.75 16.75 C-33.05976982 13.91681073 -30.26342181 11.4560706 -26.70703125 9.796875 C-24.45616539 8.59281901 -23.41309329 7.33287678 -21.875 5.3125 C-15.8446175 -1.90591297 -8.65623919 -2.88541306 0 0 Z " fill="#0B0B0B" transform="translate(197.75,245.25)"/>
<path d="M0 0 C3.47047799 1.95040863 6.17283993 4.25212242 8.75 7.3125 C8.75 7.9725 8.75 8.6325 8.75 9.3125 C9.595625 9.4775 10.44125 9.6425 11.3125 9.8125 C16.04087512 11.87579096 18.76715186 15.16280769 21.75 19.3125 C23.62298772 24.93146316 23.28881173 30.48652691 21.625 36.125 C19.33560003 40.01697995 17.48086442 41.77551219 13.75 44.3125 C12.38875 44.56 12.38875 44.56 11 44.8125 C9.88625 45.06 9.88625 45.06 8.75 45.3125 C8.05959426 46.96947379 7.3969365 48.6380761 6.75 50.3125 C2.30644726 54.96272961 -1.65844624 56.47209452 -8 56.625 C-13.76562617 56.56240575 -16.69928121 55.84162886 -21.25 52.3125 C-22.054375 51.343125 -22.85875 50.37375 -23.6875 49.375 C-25.99858303 46.61297394 -27.2371184 45.61007165 -30.25 43.9375 C-34.74422104 41.2477768 -37.42235438 38.25888035 -39.25 33.3125 C-40.25586624 27.65656358 -40.00055212 22.88367933 -37.0625 17.875 C-34.39836588 14.19488253 -31.4688793 11.30989723 -27.27734375 9.42578125 C-25.00366865 8.17723134 -23.93715904 6.92698857 -22.375 4.875 C-16.41171182 -2.26310056 -8.43451078 -3.91488614 0 0 Z " fill="#0B0B0B" transform="translate(234.25,299.6875)"/>
<path d="M0 0 C25.74 0 51.48 0 78 0 C78 8.58 78 17.16 78 26 C52.26 26 26.52 26 0 26 C0 17.42 0 8.84 0 0 Z " fill="#F9F9F9" transform="translate(372,293)"/>
<path d="M0 0 C0.90500748 -0.0087616 1.81001495 -0.01752319 2.7424469 -0.02655029 C5.71819771 -0.04846072 8.69244836 -0.03401992 11.66821289 -0.01708984 C13.74654931 -0.02046067 15.82488381 -0.02531551 17.9032135 -0.03158569 C22.25337542 -0.03894597 26.60302301 -0.02827956 30.953125 -0.00488281 C36.51609019 0.02358629 42.0778482 0.0072069 47.640769 -0.02274513 C51.93120842 -0.04085593 56.22136402 -0.03504237 60.51181221 -0.02210617 C62.56223253 -0.0187817 64.61267901 -0.02282532 66.66306877 -0.03450394 C69.5351828 -0.04727285 72.40537224 -0.02775052 75.27734375 0 C76.5361586 -0.01518173 76.5361586 -0.01518173 77.82040405 -0.03067017 C83.85931923 0.07685969 88.05750662 1.74340125 92.70336914 5.64697266 C96.52906997 10.11861896 97.26655742 14.81781664 97.09399414 20.54931641 C97.08833435 21.27188126 97.08267456 21.99444611 97.07684326 22.73890686 C97.05465171 25.02146851 97.00449463 27.30239464 96.95336914 29.58447266 C96.93328158 31.14239251 96.91503478 32.70033725 96.89868164 34.25830078 C96.85484444 38.05514416 96.78594335 41.85078223 96.70336914 45.64697266 C93.40336914 45.64697266 90.10336914 45.64697266 86.70336914 45.64697266 C86.69402344 44.75913086 86.68467773 43.87128906 86.67504883 42.95654297 C86.63096233 39.65351347 86.56932169 36.35177259 86.49584961 33.04931641 C86.46767303 31.62170329 86.44644187 30.19393512 86.43237305 28.76611328 C86.41089522 26.70996934 86.3642294 24.65568263 86.31274414 22.60009766 C86.28132324 20.74626465 86.28132324 20.74626465 86.24926758 18.85498047 C85.58060869 14.92556286 84.89786638 13.99002836 81.70336914 11.64697266 C78.749696 11.25756367 76.17075743 11.10975614 73.21875 11.14526367 C72.36467056 11.13986069 71.51059113 11.1344577 70.63063049 11.12889099 C67.8094714 11.11639048 64.9893301 11.13290194 62.16821289 11.15087891 C60.20813442 11.15072396 58.24805565 11.14923576 56.28797913 11.14646912 C52.18143154 11.14508458 48.07523299 11.15765354 43.96875 11.18041992 C38.70026802 11.20882336 33.43236526 11.20606285 28.16384029 11.19332981 C24.11726416 11.18638161 20.07082237 11.19415178 16.02426338 11.20658684 C14.08136065 11.21110837 12.13844353 11.21143203 10.19553947 11.20752144 C7.48292237 11.20461716 4.77110935 11.22107775 2.05859375 11.24291992 C1.25279877 11.23841827 0.44700378 11.23391663 -0.38320923 11.22927856 C-4.56931242 11.26068755 -4.56931242 11.26068755 -8.29180908 12.9730835 C-9.97162934 15.77142344 -9.74262749 18.50080746 -9.80834961 21.72119141 C-9.82630081 22.40502396 -9.84425201 23.08885651 -9.86274719 23.79341125 C-9.91685161 25.97370266 -9.95074426 28.15377521 -9.98413086 30.33447266 C-10.01730406 31.81432082 -10.05179373 33.29414011 -10.08764648 34.77392578 C-10.1725761 38.39806435 -10.23938721 42.02227917 -10.29663086 45.64697266 C-13.59663086 45.64697266 -16.89663086 45.64697266 -20.29663086 45.64697266 C-20.39606884 41.07550285 -20.46836435 36.50467291 -20.51635742 31.93237305 C-20.53637956 30.379527 -20.56360603 28.82675547 -20.59838867 27.27416992 C-20.64732696 25.03236433 -20.66969254 22.79156172 -20.68725586 20.54931641 C-20.707901 19.86361069 -20.72854614 19.17790497 -20.74981689 18.47142029 C-20.7522458 13.1641322 -19.49690802 9.73433739 -16.29663086 5.64697266 C-11.25761487 0.76535198 -6.83983591 -0.08229224 0 0 Z " fill="#FAFAFA" transform="translate(373.296630859375,273.35302734375)"/>
<path d="M0 0 C1.10031303 0.00303635 1.10031303 0.00303635 2.22285461 0.00613403 C2.99192642 0.00438171 3.76099823 0.00262939 4.55337524 0.00082397 C7.10793787 -0.00359483 9.66243185 -0.00065646 12.21699524 0.00271606 C13.98437005 0.00204303 15.75174477 0.00107302 17.51911926 -0.00018311 C21.22815327 -0.00166012 24.93716324 0.00049458 28.64619446 0.00515747 C33.41147017 0.01085476 38.17668956 0.00757577 42.9419632 0.00158501 C46.59295581 -0.00202052 50.24393497 -0.00088206 53.89492798 0.0017128 C55.65248623 0.00238209 57.41004569 0.00155357 59.16760254 -0.00076675 C61.61964678 -0.00329314 64.07159855 0.0005471 66.52363586 0.00613403 C67.25717789 0.0041098 67.99071991 0.00208557 68.74649048 0 C73.7589826 0.02126592 73.7589826 0.02126592 74.87324524 1.13552856 C74.97233826 3.46712912 75.00295028 5.80182798 74.99824524 8.13552856 C75.00211243 10.05365356 75.00211243 10.05365356 75.00605774 12.01052856 C74.87324524 15.13552856 74.87324524 15.13552856 73.87324524 16.13552856 C71.41419302 16.23584736 68.98321096 16.27171037 66.52363586 16.2649231 C65.75456406 16.26667542 64.98549225 16.26842773 64.19311523 16.27023315 C61.63855261 16.27465196 59.08405863 16.27171359 56.52949524 16.26834106 C54.76212043 16.2690141 52.99474571 16.26998411 51.22737122 16.27124023 C47.51833721 16.27271725 43.80932724 16.27056255 40.10029602 16.26589966 C35.33502031 16.26020237 30.56980092 16.26348135 25.80452728 16.26947212 C22.15353467 16.27307765 18.50255551 16.27193919 14.8515625 16.26934433 C13.09400425 16.26867504 11.33644479 16.26950356 9.57888794 16.27182388 C7.1268437 16.27435027 4.67489193 16.27051003 2.22285461 16.2649231 C1.48931259 16.26694733 0.75577057 16.26897156 0 16.27105713 C-5.01249212 16.24979121 -5.01249212 16.24979121 -6.12675476 15.13552856 C-6.22584778 12.80392801 -6.2564598 10.46922915 -6.25175476 8.13552856 C-6.25433289 6.85677856 -6.25691101 5.57802856 -6.25956726 4.26052856 C-6.04622232 -0.75935249 -4.57756542 0.01942071 0 0 Z " fill="#F9F9F9" transform="translate(460.1267547607422,346.8644714355469)"/>
<path d="M0 0 C18.48 0 36.96 0 56 0 C56 6.6 56 13.2 56 20 C37.52 20 19.04 20 0 20 C0 13.4 0 6.8 0 0 Z " fill="#FDFDFD" transform="translate(233,370)"/>
<path d="M0 0 C5.65413534 2.93580104 5.65413534 2.93580104 6.8125 6.5 C8.54308053 10.14332744 11.23692478 10.66159903 14.90625 12.0078125 C17 13 17 13 19 16 C19.53630992 19.06543458 19.53876706 21.93402664 19 25 C16.44623156 27.92932263 14.60090507 28.83174658 10.875 29.875 C7.0104064 31.38723228 6.71961816 33.33646566 5 37 C2.30450398 39.18553732 0.47787726 39.91865919 -2.9375 40.5 C-7.14073738 39.81375716 -9.02342115 37.97657885 -12 35 C-12.309375 34.29875 -12.61875 33.5975 -12.9375 32.875 C-14.67901179 29.80174389 -17.82295691 29.28196476 -21 28 C-24.02159528 26.08632299 -24.05844402 24.77718217 -25 21.1875 C-25.31442322 17.62403685 -24.98116731 16.96880836 -23 13.6875 C-20.14016609 10.71582901 -16.76260218 9.60258982 -13 8 C-11.28288757 5.55503957 -11.28288757 5.55503957 -10 3 C-6.81626561 -0.18373439 -4.43614403 -0.62106016 0 0 Z " fill="#F8F8F8" transform="translate(182,360)"/>
<path d="M0 0 C5.65413534 2.93580104 5.65413534 2.93580104 6.8125 6.5 C8.54575981 10.14896801 11.24768277 10.70974911 14.90625 12.10546875 C17 13 17 13 19 15 C19.57078979 18.0582316 19.50902878 20.93522257 19 24 C15.7032882 28.6953168 12.36892535 29.84199649 7 31 C6.896875 31.763125 6.79375 32.52625 6.6875 33.3125 C5.92551857 36.29115468 5.34648297 37.10476376 3 39 C-0.61663593 40.21243414 -4.35026648 40.81790586 -7.8515625 39.08203125 C-10.10947047 37.27459261 -11.76540736 35.53174332 -12.9375 32.875 C-13.96681168 30.60707636 -13.96681168 30.60707636 -17.375 29.625 C-21.68283509 27.69390151 -23.03271372 26.2624536 -25 22 C-25 18.05550755 -24.6441878 15.88277587 -22.3125 12.6875 C-20 11 -20 11 -17.125 10.25 C-13.07517687 8.63007075 -11.68280334 6.32416733 -9.296875 2.77734375 C-6.78986397 -0.65846956 -4.01351153 -0.38591457 0 0 Z " fill="#F9F9F9" transform="translate(193,253)"/>
<path d="M0 0 C2.77105407 0.5577521 3.66224104 1.15859551 5.4453125 3.3046875 C6.1053125 4.3565625 6.7653125 5.4084375 7.4453125 6.4921875 C9.14825424 9.73396793 9.14825424 9.73396793 12.3203125 10.3671875 C16.15610973 11.7480745 17.4140887 12.97660785 19.4453125 16.4921875 C20.0253284 20.55229882 19.91603415 22.66371739 17.8828125 26.2421875 C15.4453125 28.4921875 15.4453125 28.4921875 11.9453125 29.9296875 C7.78800166 31.78562984 6.73294163 33.65223861 4.4453125 37.4921875 C0.77236375 39.94082 -2.28737715 40.32402188 -6.5546875 39.4921875 C-9.77423395 36.95765093 -11.25901185 35.37921445 -12.5546875 31.4921875 C-14.55388598 30.43238494 -14.55388598 30.43238494 -16.9296875 29.6171875 C-19.98499105 28.33483434 -21.40782128 27.66130618 -23.6171875 25.1171875 C-24.75569624 21.92936303 -25.04496643 19.85410014 -24.5546875 16.4921875 C-23.0546875 13.7421875 -23.0546875 13.7421875 -20.5546875 11.4921875 C-18.578125 10.94921875 -18.578125 10.94921875 -16.4296875 10.5546875 C-14.34481146 10.21448659 -14.34481146 10.21448659 -12.5546875 9.4921875 C-11.14624099 6.60028345 -11.14624099 6.60028345 -10.5546875 3.4921875 C-7.65908923 -0.38078937 -4.54618801 -0.11928773 0 0 Z " fill="#FAFAFA" transform="translate(228.5546875,307.5078125)"/>
<path d="M0 0 C0 19.8 0 39.6 0 60 C-10 60 -10 60 -12.59265137 58.32275391 C-14.24835067 55.59011046 -14.50635583 54.01965973 -14.51757812 50.8359375 C-14.53018677 49.80807129 -14.54279541 48.78020508 -14.55578613 47.72119141 C-14.54768921 46.61694824 -14.53959229 45.51270508 -14.53125 44.375 C-14.5350769 43.23595215 -14.53890381 42.0969043 -14.54284668 40.92333984 C-14.54556774 38.51594153 -14.5381931 36.10851374 -14.52148438 33.70117188 C-14.50007925 30.01365318 -14.52128132 26.32808301 -14.546875 22.640625 C-14.54423176 20.30207903 -14.53910687 17.96353427 -14.53125 15.625 C-14.53934692 14.52075684 -14.54744385 13.41651367 -14.55578613 12.27880859 C-14.54317749 11.25094238 -14.53056885 10.22307617 -14.51757812 9.1640625 C-14.51439575 8.26123535 -14.51121338 7.3584082 -14.50793457 6.42822266 C-14 4 -14 4 -12.59265137 1.67724609 C-10 0 -10 0 0 0 Z " fill="#F4F4F4" transform="translate(312,350)"/>
<path d="M0 0 C2 3 2 3 1.75 5.5 C1 8 1 8 -1 11 C-0.01 12.32 0.98 13.64 2 15 C1.01 15.66 0.02 16.32 -1 17 C-4.3 13.7 -7.6 10.4 -11 7 C-8.41288499 1.82576997 -6.08015861 -0.96002504 0 0 Z " fill="#FEEFF1" transform="translate(36,40)"/>
<path d="M0 0 C1.7325 0.1546875 1.7325 0.1546875 3.5 0.3125 C5.80163882 3.76495824 5.84490322 5.25988713 5.5 9.3125 C3.5 11.3125 3.5 11.3125 0.5625 11.625 C-2.5 11.3125 -2.5 11.3125 -4.375 10.1875 C-6.00531294 7.47031176 -5.83015665 5.41597254 -5.5 2.3125 C-3.5 0.3125 -3.5 0.3125 0 0 Z " fill="#FEE2EF" transform="translate(51.5,27.6875)"/>
<path d="M0 0 C0.66 0 1.32 0 2 0 C1.938125 0.9075 1.87625 1.815 1.8125 2.75 C2.02171921 6.37646635 2.82338226 7.25556894 5 10 C4.67 10.99 4.34 11.98 4 13 C2.82174642 12.09827532 1.65768423 11.17798498 0.5 10.25 C-0.1496875 9.73953125 -0.799375 9.2290625 -1.46875 8.703125 C-3 7 -3 7 -3 3 C-2.34 3 -1.68 3 -1 3 C-0.67 2.01 -0.34 1.02 0 0 Z " fill="#FEE4EB" transform="translate(42,34)"/>
<path d="M0 0 C0.66 0 1.32 0 2 0 C3.02611949 1.65071396 4.02308143 3.31970006 5 5 C6.58245275 6.75149165 6.58245275 6.75149165 8 8 C3.55063291 8.36075949 3.55063291 8.36075949 1.1875 6.8125 C-0.36678206 4.44017475 -0.22537188 2.77958655 0 0 Z " fill="#FEF9FB" transform="translate(46,31)"/>
<path d="M0 0 C1.32 0.66 2.64 1.32 4 2 C4 3.32 4 4.64 4 6 C2.35 5.67 0.7 5.34 -1 5 C-0.67 3.35 -0.34 1.7 0 0 Z " fill="#FC4699" transform="translate(50,30)"/>
<path d="M0 0 C0.66 0 1.32 0 2 0 C1.25 7.625 1.25 7.625 -1 11 C-1.02688151 9.35425434 -1.04634123 7.70838587 -1.0625 6.0625 C-1.07410156 5.14597656 -1.08570313 4.22945313 -1.09765625 3.28515625 C-1 1 -1 1 0 0 Z " fill="#C2C2C2" transform="translate(666,401)"/>
<path d="M0 0 C1.32 0.33 2.64 0.66 4 1 C3.34 2.32 2.68 3.64 2 5 C0.68 4.67 -0.64 4.34 -2 4 C-1.34 2.68 -0.68 1.36 0 0 Z " fill="#FD6577" transform="translate(31,43)"/>
<path d="M0 0 C0.66 0.33 1.32 0.66 2 1 C0.41641358 4.16717283 -0.45263699 5.73268318 -3.6875 7.3125 C-4.450625 7.539375 -5.21375 7.76625 -6 8 C-6 7.34 -6 6.68 -6 6 C-5.01 6 -4.02 6 -3 6 C-3 5.01 -3 4.02 -3 3 C-2.01 3 -1.02 3 0 3 C0 2.01 0 1.02 0 0 Z " fill="#E0E0E0" transform="translate(234,339)"/>
<path d="M0 0 C0.66 0 1.32 0 2 0 C2 0.99 2 1.98 2 3 C-1 5.1875 -1 5.1875 -4 7 C-2.92598892 4.08482708 -2.22189824 2.22189824 0 0 Z " fill="#DFDFDF" transform="translate(221,308)"/>
<path d="M0 0 C0.66 0.66 1.32 1.32 2 2 C1.01 2.33 0.02 2.66 -1 3 C-2.20882096 5.00016466 -2.20882096 5.00016466 -3 7 C-3.99 7 -4.98 7 -6 7 C-4.02 4.69 -2.04 2.38 0 0 Z " fill="#D7D7D7" transform="translate(95,132)"/>
</svg>
